<svg width="52" height="52" viewBox="0 0 52 52" fill="none" xmlns="http://www.w3.org/2000/svg">
<path d="M24.4655 8.32538C24.9625 7.38232 25.211 6.91076 25.5429 6.75682C25.832 6.62273 26.1654 6.62273 26.4547 6.75682C26.7866 6.91076 27.0351 7.38232 27.5322 8.32538L30.5807 14.1092C30.7954 14.5164 30.9026 14.7199 31.0625 14.8555C31.2036 14.9752 31.373 15.0568 31.5544 15.0924C31.76 15.1328 31.9862 15.0898 32.4384 15.0037L38.861 13.781C39.9082 13.5817 40.4318 13.482 40.7592 13.6455C41.0444 13.788 41.2521 14.0487 41.3275 14.3583C41.4142 14.7138 41.2006 15.2021 40.7731 16.1787L38.1519 22.1684C37.9673 22.59 37.8752 22.8008 37.8687 23.0103C37.863 23.1951 37.9049 23.3784 37.9902 23.5427C38.0869 23.7286 38.2615 23.8785 38.6108 24.1784L43.5711 28.4376C44.3799 29.132 44.7842 29.4793 44.8605 29.8371C44.927 30.1488 44.8527 30.4738 44.6577 30.7258C44.4337 31.0153 43.9187 31.1527 42.8886 31.4274L36.5715 33.1124C36.1267 33.2311 35.9044 33.2905 35.7367 33.4162C35.5887 33.5269 35.4715 33.674 35.3963 33.843C35.3111 34.0345 35.3027 34.2644 35.286 34.7244L35.0488 41.2582C35.0102 42.3236 34.9909 42.8561 34.7586 43.1389C34.5563 43.3852 34.256 43.53 33.9373 43.5345C33.5713 43.5397 33.143 43.2227 32.2858 42.5888L27.0297 38.7005C26.6596 38.4268 26.4746 38.2899 26.2718 38.237C26.0928 38.1904 25.9048 38.1904 25.7258 38.237C25.523 38.2899 25.338 38.4268 24.9679 38.7005L19.7118 42.5888C18.8547 43.2227 18.4262 43.5397 18.0604 43.5345C17.7417 43.53 17.4413 43.3852 17.239 43.1389C17.0067 42.8561 16.9874 42.3236 16.9487 41.2582L16.7115 34.7244C16.6949 34.2644 16.6865 34.0345 16.6013 33.843C16.5262 33.674 16.409 33.5269 16.2609 33.4162C16.0932 33.2905 15.8708 33.2311 15.4261 33.1124L9.10892 31.4274C8.07889 31.1527 7.56387 31.0153 7.33993 30.7258C7.14486 30.4738 7.07067 30.1488 7.13706 29.8371C7.21328 29.4793 7.61769 29.132 8.42651 28.4376L13.3869 24.1784C13.7361 23.8785 13.9107 23.7286 14.0074 23.5427C14.0926 23.3784 14.1345 23.1951 14.1289 23.0103C14.1225 22.8008 14.0302 22.59 13.8457 22.1684L11.2245 16.1787C10.7971 15.2021 10.5834 14.7138 10.67 14.3583C10.7454 14.0487 10.9533 13.788 11.2384 13.6455C11.5657 13.482 12.0893 13.5817 13.1366 13.781L19.5593 15.0037C20.0115 15.0898 20.2375 15.1328 20.4431 15.0924C20.6247 15.0568 20.7941 14.9752 20.9351 14.8555C21.0949 14.7199 21.2022 14.5164 21.4168 14.1092L24.4655 8.32538Z" stroke="#757575" stroke-width="4.33333" stroke-linecap="round" stroke-linejoin="round"/>
</svg>
