<svg width="50" height="50" viewBox="0 0 50 50" fill="none" xmlns="http://www.w3.org/2000/svg">
<path d="M30.2083 40.6243H19.7917M30.2083 40.6243C30.2083 39.1379 30.2083 38.3946 30.2877 37.9014C30.5435 36.311 30.5883 36.2108 31.6025 34.9591C31.9169 34.5712 33.0844 33.5258 35.4192 31.4352C38.6144 28.5741 40.625 24.4173 40.625 19.791C40.625 17.9648 40.3117 16.2117 39.7358 14.5827M30.2083 40.6243C30.2083 42.5714 30.2083 43.545 29.7896 44.2702C29.5154 44.7452 29.1208 45.1398 28.6458 45.4139C27.9206 45.8327 26.9471 45.8327 25 45.8327C23.0529 45.8327 22.0794 45.8327 21.3542 45.4139C20.8792 45.1398 20.4846 44.7452 20.2103 44.2702C19.7917 43.545 19.7917 42.5714 19.7917 40.6243M19.7917 40.6243C19.7917 39.1379 19.7917 38.3946 19.7123 37.9014C19.4565 36.311 19.4117 36.2108 18.3975 34.9591C18.0831 34.5712 16.9155 33.5258 14.5808 31.4352C11.3856 28.5741 9.375 24.4173 9.375 19.791C9.375 11.1616 16.3705 4.16602 25 4.16602C27.841 4.16602 30.5048 4.92422 32.8004 6.24935" stroke="#757575" stroke-width="3.125" stroke-linecap="round"/>
<path d="M26.6362 17.709L22.1719 23.959H28.4219L23.9577 30.209" stroke="#757575" stroke-width="3.125" stroke-linecap="round" stroke-linejoin="round"/>
</svg>
