<svg width="1235" height="688" viewBox="0 0 1235 688" fill="none" xmlns="http://www.w3.org/2000/svg">
<g clip-path="url(#clip0_2003_3173)">
<g style="mix-blend-mode:overlay">
<path d="M955.491 880.066C957.05 882.233 957.754 884.94 957.507 887.809C957.259 890.678 956.072 893.569 954.11 896.078C952.147 898.588 949.507 900.593 946.557 901.814C943.606 903.035 940.491 903.412 937.643 902.892C878.453 889.494 829.22 856.977 797.481 810.318C771.002 774.679 740.288 718.065 745.49 651.401C745.772 647.758 747.569 644.101 750.491 641.229C753.413 638.357 757.222 636.502 761.087 636.07C764.969 635.718 768.56 636.823 771.088 639.145C773.615 641.468 774.877 644.822 774.601 648.487C773.643 702.525 790.293 752.517 822.346 791.844C850.85 833.704 894.916 862.991 947.913 875.299C951.153 875.835 953.848 877.531 955.491 880.066Z" fill="url(#paint0_linear_2003_3173)" fill-opacity="0.4"/>
<path d="M858.718 510.486C859.931 512.156 860.645 514.154 860.803 516.314C860.961 518.475 860.558 520.736 859.627 522.911C837.195 575.552 815.139 656.194 882.631 747.033C904.149 777.921 934.335 801.961 970.62 817.107C1006.9 832.254 1048.21 838.058 1091.04 834.027C1094.89 833.659 1098.46 834.743 1100.97 837.043C1103.48 839.343 1104.73 842.674 1104.45 846.31C1104.33 848.195 1103.8 850.108 1102.89 851.929C1101.97 853.75 1100.7 855.438 1099.14 856.888C1097.59 858.337 1095.78 859.515 1093.85 860.347C1091.92 861.179 1089.89 861.648 1087.9 861.723C1040.64 866.039 995.059 859.551 955.009 842.807C914.958 826.063 881.608 799.552 857.767 765.507C801.921 690.344 793.914 608.957 832.982 516.923C834.542 513.346 837.446 510.246 841.06 508.302C844.673 506.357 848.701 505.727 852.262 506.549C854.888 507.172 857.128 508.538 858.718 510.486Z" fill="url(#paint1_linear_2003_3173)" fill-opacity="0.4"/>
<path d="M1322.04 497.913C1323.57 500.001 1324.29 502.612 1324.11 505.412C1323.94 508.212 1322.86 511.073 1321.04 513.63C1319.86 515.333 1318.38 516.861 1316.66 518.12C1314.95 519.379 1313.05 520.342 1311.08 520.95C1309.1 521.559 1307.1 521.799 1305.19 521.657C1303.29 521.515 1301.51 520.993 1299.98 520.124C1228.47 482.388 1144.93 489.77 1076.73 540.441C1069.73 545.016 1063.58 550.778 1058.68 557.334C1053.78 563.89 1050.25 571.084 1048.34 578.428C1046.42 585.771 1046.17 593.09 1047.59 599.885C1049.01 606.68 1052.07 612.792 1056.57 617.802C1075.08 642.723 1100.72 642.392 1142.29 616.493C1161.73 604.371 1183.93 598.964 1204.23 601.409C1224.53 603.853 1241.35 613.959 1251.15 629.602C1257.2 637.439 1261.13 646.744 1262.71 656.925C1264.29 667.105 1263.48 677.938 1260.33 688.732C1257.17 699.527 1251.75 710.047 1244.39 719.622C1237.04 729.197 1227.92 737.618 1217.62 744.347C1165.51 781.911 1103.72 801.295 1045.71 798.267C987.703 795.24 938.198 770.048 907.998 728.189C876.436 685.711 867.078 629.414 881.969 571.596C896.859 513.778 934.788 459.138 987.469 419.611C1025.4 392.899 1066.79 371.931 1109.69 357.705C1113.57 356.514 1117.49 356.715 1120.62 358.265C1123.75 359.816 1125.85 362.596 1126.48 366.024C1126.77 367.743 1126.67 369.572 1126.19 371.405C1125.71 373.238 1124.86 375.038 1123.69 376.701C1122.52 378.364 1121.05 379.857 1119.37 381.094C1117.69 382.331 1115.82 383.287 1113.89 383.906C1074.9 396.908 1037.26 415.934 1002.7 440.11C956.705 474.559 923.593 522.234 910.623 572.682C897.653 623.131 905.883 672.236 933.51 709.234C946.393 727.496 963.605 742.378 984.159 753.028C1004.71 763.677 1028.21 769.885 1053.29 771.295C1078.38 772.705 1104.57 769.29 1130.36 761.246C1156.15 753.201 1181.03 740.685 1203.58 724.415C1210.48 720.144 1216.62 714.709 1221.61 708.47C1226.59 702.23 1230.3 695.326 1232.5 688.213C1234.69 681.1 1235.33 673.939 1234.35 667.202C1233.37 660.464 1230.81 654.303 1226.84 649.123C1223.85 643.855 1219.63 639.427 1214.42 636.096C1209.22 632.765 1203.13 630.597 1196.51 629.717C1189.89 628.836 1182.86 629.261 1175.85 630.967C1168.83 632.673 1161.95 635.625 1155.62 639.654C1100.18 673.361 1058.6 672.437 1032.02 636.664C1025.49 628.936 1021.09 619.628 1019.12 609.347C1017.14 599.067 1017.64 588.044 1020.57 576.999C1023.5 565.954 1028.79 555.134 1036.12 545.245C1043.44 535.357 1052.62 526.622 1063.06 519.611C1142.1 460.886 1238.33 451.772 1319.95 495.099C1320.78 495.935 1321.48 496.879 1322.04 497.913Z" fill="url(#paint2_linear_2003_3173)" fill-opacity="0.4"/>
<path d="M1235.78 406.261C1237.63 408.864 1238.32 412.188 1237.7 415.643C1237.27 417.452 1236.46 419.226 1235.34 420.863C1234.22 422.501 1232.8 423.968 1231.17 425.18C1229.54 426.393 1227.72 427.327 1225.83 427.928C1223.94 428.529 1222.01 428.786 1220.15 428.683C1159.86 426.699 1096.74 447.242 1043.85 486.061C1018.5 504.898 940.56 572.788 1002.48 656.124C1010.98 668.652 1022.4 678.96 1036.06 686.447C1049.72 693.934 1065.35 698.45 1082.04 699.731C1097.37 700.585 1113.3 698.429 1128.88 693.389C1144.47 688.349 1159.38 680.53 1172.74 670.397C1176.06 667.987 1180.02 666.756 1183.77 666.969C1187.51 667.182 1190.74 668.823 1192.76 671.537C1193.78 672.869 1194.47 674.433 1194.79 676.138C1195.11 677.843 1195.05 679.655 1194.61 681.468C1194.18 683.282 1193.37 685.061 1192.25 686.702C1191.13 688.344 1189.71 689.815 1188.07 691.03C1171.58 703.609 1153.17 713.371 1133.92 719.748C1114.67 726.126 1094.96 728.992 1075.94 728.179C1055.58 726.738 1036.49 721.366 1019.76 712.375C1003.04 703.384 989.015 690.953 978.51 675.804C917.986 594.344 967.989 512.276 1029.42 466.634C1088.17 423.257 1158.36 400.126 1225.55 402.005C1227.63 401.893 1229.62 402.216 1231.39 402.952C1233.15 403.687 1234.65 404.817 1235.78 406.261Z" fill="url(#paint3_linear_2003_3173)" fill-opacity="0.4"/>
<path d="M1305.09 585.779C1310.26 592.777 1314.95 600.118 1319.15 607.766C1319.96 609.238 1320.43 610.904 1320.51 612.668C1320.6 614.432 1320.31 616.259 1319.66 618.046C1319.01 619.834 1318.01 621.545 1316.72 623.084C1315.43 624.622 1313.87 625.958 1312.14 627.013C1310.41 628.069 1308.53 628.824 1306.62 629.236C1304.71 629.648 1302.8 629.708 1301 629.414C1299.2 629.119 1297.54 628.476 1296.13 627.52C1294.72 626.564 1293.57 625.314 1292.76 623.842C1272.52 587.1 1245.86 566.153 1213.17 561.536C1197.48 559.87 1181 561.341 1164.72 565.86C1148.44 570.378 1132.7 577.852 1118.45 587.83C1116.75 588.986 1114.89 589.843 1112.97 590.349C1111.04 590.856 1109.1 591 1107.26 590.775C1105.42 590.549 1103.72 589.958 1102.25 589.037C1100.79 588.116 1099.6 586.884 1098.75 585.416C1096.99 582.53 1096.64 578.891 1097.75 575.267C1098.87 571.643 1101.38 568.316 1104.74 565.989C1122.55 553.639 1142.19 544.438 1162.48 538.945C1182.76 533.452 1203.27 531.782 1222.76 534.037C1257.8 540.097 1287.01 558.455 1305.09 585.779Z" fill="url(#paint4_linear_2003_3173)" fill-opacity="0.4"/>
</g>
<g style="mix-blend-mode:overlay">
<path d="M259.436 -149.029C258.215 -151.406 257.95 -154.206 258.677 -157.04C259.404 -159.874 261.087 -162.601 263.492 -164.843C265.898 -167.086 268.907 -168.732 272.101 -169.552C275.295 -170.373 278.515 -170.328 281.315 -169.424C339.096 -148.024 383.61 -108.865 408.044 -57.9421C428.974 -18.7441 450.717 41.9878 434.383 107.901C433.493 111.504 431.064 114.914 427.626 117.389C424.187 119.863 420.018 121.201 416.028 121.111C412.035 120.936 408.577 119.346 406.4 116.683C404.224 114.02 403.501 110.497 404.389 106.873C414.325 53.0018 405.741 0.79143 379.773 -42.8465C357.822 -88.5354 318.01 -123.767 266.326 -143.24C263.131 -144.214 260.68 -146.273 259.436 -149.029Z" fill="url(#paint5_linear_2003_3173)" fill-opacity="0.45"/>
<path d="M296.22 233.409C295.268 231.576 294.875 229.483 295.074 227.302C295.272 225.122 296.056 222.917 297.361 220.869C328.834 171.302 364.573 93.7013 311.225 -6.20954C294.536 -39.9889 267.924 -68.0978 233.654 -88.145C199.383 -108.192 158.469 -119.584 114.39 -121.352C110.424 -121.506 106.984 -123.073 104.82 -125.711C102.655 -128.35 101.94 -131.847 102.83 -135.442C103.261 -137.31 104.118 -139.15 105.347 -140.846C106.575 -142.542 108.148 -144.056 109.966 -145.294C111.783 -146.532 113.806 -147.465 115.905 -148.035C118.004 -148.605 120.134 -148.799 122.16 -148.604C170.793 -146.519 215.921 -133.867 253.743 -111.714C291.565 -89.5603 320.975 -58.5538 339.495 -21.3051C383.638 61.3644 378.252 143.778 323.378 230.46C321.203 233.823 317.745 236.528 313.759 237.982C309.773 239.435 305.585 239.52 302.112 238.217C299.554 237.238 297.51 235.57 296.22 233.409Z" fill="url(#paint6_linear_2003_3173)" fill-opacity="0.45"/>
<path d="M-174.612 185.024C-175.836 182.696 -176.155 179.958 -175.531 177.16C-174.906 174.362 -173.366 171.631 -171.106 169.316C-169.646 167.768 -167.893 166.442 -165.955 165.42C-164.017 164.398 -161.935 163.702 -159.836 163.373C-157.738 163.045 -155.668 163.092 -153.754 163.511C-151.84 163.93 -150.122 164.713 -148.707 165.811C-82.087 214.211 3.88094 218.845 81.127 177.598C88.9506 173.995 96.1121 169.074 102.123 163.17C108.134 157.266 112.853 150.519 115.957 143.39C119.062 136.26 120.48 128.915 120.113 121.856C119.747 114.797 117.605 108.19 113.834 102.487C98.984 74.6749 72.9118 71.3023 26.6122 91.4127C4.96257 100.828 -18.4287 103.071 -38.6471 97.671C-58.8654 92.2704 -74.3371 79.6465 -81.8114 62.4516C-86.708 53.673 -89.2329 43.7185 -89.2253 33.222C-89.2176 22.7256 -86.6777 11.9175 -81.7672 1.48616C-76.8567 -8.94517 -69.6833 -18.771 -60.704 -27.3654C-51.7247 -35.9598 -41.1363 -43.1344 -29.6134 -48.4321C29.221 -78.7856 95.0182 -89.4005 153.419 -77.9603C211.82 -66.5202 258.084 -33.9538 282.114 12.6319C307.428 60.0385 308.017 118.172 283.751 174.335C259.485 230.497 212.337 280.123 152.606 312.373C109.88 333.83 64.5408 348.993 18.7455 357.139C14.6151 357.779 10.671 357.011 7.73927 354.994C4.80757 352.978 3.11569 349.87 3.01792 346.322C2.99888 344.546 3.38888 342.715 4.16535 340.936C4.94182 339.157 6.08933 337.464 7.54143 335.956C8.99353 334.448 10.7214 333.154 12.6249 332.15C14.5285 331.146 16.5699 330.451 18.631 330.106C60.2666 322.63 101.486 308.882 140.39 289.495C192.531 261.4 233.687 218.103 254.837 169.096C275.987 120.089 275.404 69.3715 253.217 28.0615C243.031 7.77905 227.915 -9.71959 208.737 -23.4324C189.559 -37.1452 166.694 -46.8029 141.453 -51.8524C116.211 -56.9018 89.088 -57.2439 61.637 -52.8591C34.1859 -48.4742 6.9459 -39.4485 -18.5232 -26.2989C-26.1985 -22.9882 -33.2927 -18.3953 -39.3387 -12.8225C-45.3848 -7.24969 -50.2456 -0.823432 -53.601 6.03315C-56.9564 12.8897 -58.7304 20.0211 -58.8062 26.9578C-58.882 33.8944 -57.2577 40.479 -54.0405 46.2779C-51.8415 52.0238 -48.2604 57.0993 -43.5038 61.2115C-38.7472 65.3237 -32.9094 68.3911 -26.3275 70.2364C-19.7456 72.0818 -12.5499 72.6686 -5.15615 71.963C2.23766 71.2574 9.68316 69.2734 16.7504 66.1255C78.3619 40.145 120.418 47.0885 141.736 87.0118C147.145 95.7508 150.135 105.775 150.511 116.429C150.887 127.084 148.642 138.13 143.92 148.846C139.199 159.563 132.108 169.71 123.111 178.624C114.113 187.539 103.41 195.021 91.7012 200.584C2.17887 248.385 -96.9419 243.665 -172.936 188.164C-173.644 187.201 -174.207 186.148 -174.612 185.024Z" fill="url(#paint7_linear_2003_3173)" fill-opacity="0.45"/>
<path d="M-108.009 293.593C-109.498 290.659 -109.606 287.13 -108.314 283.632C-107.513 281.815 -106.331 280.081 -104.836 278.53C-103.341 276.98 -101.563 275.643 -99.6042 274.597C-97.6456 273.551 -95.5455 272.817 -93.4251 272.437C-91.3047 272.058 -89.2062 272.04 -87.2508 272.385C-23.5689 282.181 47.2911 269.019 110.672 235.62C141.097 219.374 236.486 159.095 186.172 64.8677C179.462 50.8056 169.248 38.6679 156.126 29.1626C143.003 19.6573 127.235 12.9749 109.741 9.50517C93.6174 6.65233 76.2956 6.83988 58.8081 10.0566C41.3207 13.2734 24.0256 19.4535 7.95378 28.2286C3.98352 30.2973 -0.451922 31.0638 -4.39199 30.3618C-8.33205 29.6599 -11.4596 27.5462 -13.0972 24.4784C-13.9372 22.9675 -14.381 21.2595 -14.4029 19.4535C-14.4248 17.6476 -14.0244 15.7796 -13.2249 13.9581C-12.4253 12.1366 -11.2427 10.3978 -9.74549 8.84261C-8.24831 7.28747 -6.46646 5.94696 -4.50336 4.89891C15.3511 -6.00601 36.7153 -13.749 58.3471 -17.8799C79.9789 -22.0107 101.447 -22.447 121.502 -19.1634C142.86 -15.0574 162.148 -7.04394 178.247 4.41188C194.346 15.8677 206.935 30.5378 215.284 47.5709C264.465 139.678 196.124 218.221 122.401 257.586C51.9494 294.95 -26.9115 309.884 -97.9369 299.312C-100.161 299.161 -102.216 298.571 -103.956 297.582C-105.696 296.594 -107.08 295.232 -108.009 293.593Z" fill="url(#paint8_linear_2003_3173)" fill-opacity="0.45"/>
<path d="M-143.785 97.764C-147.864 90.0705 -151.406 82.0996 -154.397 73.8877C-154.976 72.3068 -155.169 70.5799 -154.964 68.8055C-154.76 67.031 -154.162 65.2439 -153.206 63.5461C-152.249 61.8482 -150.952 60.273 -149.389 58.9102C-147.825 57.5475 -146.026 56.4239 -144.094 55.6037C-142.162 54.7835 -140.135 54.2826 -138.128 54.1298C-136.122 53.977 -134.175 54.1752 -132.4 54.713C-130.624 55.2509 -129.054 56.1179 -127.78 57.2645C-126.506 58.4112 -125.552 59.815 -124.973 61.3958C-110.554 100.851 -87.0014 125.393 -54.63 134.431C-39.001 138.22 -22.0501 138.981 -4.79803 136.668C12.4541 134.356 29.6504 129.018 45.7555 120.977C47.6655 120.051 49.6988 119.447 51.7323 119.201C53.7658 118.956 55.7573 119.074 57.5867 119.548C59.416 120.023 61.045 120.844 62.3754 121.963C63.7058 123.081 64.7098 124.473 65.3269 126.055C66.6289 129.178 66.3868 132.862 64.6516 136.332C62.9163 139.803 59.8236 142.787 56.0253 144.657C35.9306 154.589 14.4919 161.125 -6.98591 163.868C-28.4637 166.612 -49.5316 165.504 -68.9074 160.613C-103.428 149.814 -129.994 127.515 -143.785 97.764Z" fill="url(#paint9_linear_2003_3173)" fill-opacity="0.45"/>
</g>
<path d="M64 352L-178.208 693.378" stroke="url(#paint10_linear_2003_3173)" stroke-opacity="0.8" stroke-width="1.5952"/>
<path d="M303.57 196.43L66.2683 689.403" stroke="url(#paint11_linear_2003_3173)" stroke-opacity="0.8" stroke-width="1.5952"/>
<path d="M437.141 112.031L318.036 694.326" stroke="url(#paint12_linear_2003_3173)" stroke-opacity="0.8" stroke-width="1.5952"/>
<path d="M573.844 17.3359L510.293 687.756" stroke="url(#paint13_linear_2003_3173)" stroke-opacity="0.8" stroke-width="1.5952"/>
<path d="M662.992 17.3047L724.205 687.763" stroke="url(#paint14_linear_2003_3173)" stroke-opacity="0.8" stroke-width="1.5952"/>
<path d="M749.195 17.8828L880 487" stroke="url(#paint15_linear_2003_3173)" stroke-opacity="0.8" stroke-width="1.5952"/>
<path opacity="0.8" d="M861.938 8.125L999.167 396.943" stroke="url(#paint16_linear_2003_3173)" stroke-opacity="0.7" stroke-width="1.5952"/>
<path d="M928.766 17.0938L1163.68 346.356" stroke="url(#paint17_linear_2003_3173)" stroke-opacity="0.6" stroke-width="1.5952"/>
<path d="M1016.95 17.3359L1710.29 687.756" stroke="url(#paint18_linear_2003_3173)" stroke-opacity="0.8" stroke-width="1.5952"/>
<path d="M-374.953 591.391H760.133" stroke="#6D6D6D" stroke-opacity="0.2" stroke-width="1.5952"/>
<path d="M-269 487H880.867" stroke="#6D6D6D" stroke-opacity="0.15" stroke-width="1.5952"/>
<path d="M33.1328 396.641L992.145 397.162" stroke="url(#paint19_linear_2003_3173)" stroke-opacity="0.9" stroke-width="1.5952"/>
<path d="M219.992 301.828H1314.1" stroke="url(#paint20_linear_2003_3173)" stroke-opacity="0.8" stroke-width="1.5952"/>
<path d="M352 224.688H1226.05" stroke="url(#paint21_linear_2003_3173)" stroke-opacity="0.6" stroke-width="1.5952"/>
<path d="M480 112.297H1115.99" stroke="url(#paint22_linear_2003_3173)" stroke-opacity="0.3" stroke-width="1.5952"/>
<path d="M442 156.938H1163.14" stroke="url(#paint23_linear_2003_3173)" stroke-opacity="0.5" stroke-width="1.5952"/>
</g>
<defs>
<linearGradient id="paint0_linear_2003_3173" x1="733.858" y1="653.365" x2="900.044" y2="640.845" gradientUnits="userSpaceOnUse">
<stop stop-color="white"/>
<stop offset="0.913767" stop-color="#999999"/>
</linearGradient>
<linearGradient id="paint1_linear_2003_3173" x1="789.892" y1="546.073" x2="1057.92" y2="564" gradientUnits="userSpaceOnUse">
<stop stop-color="white"/>
<stop offset="0.913767" stop-color="#999999"/>
</linearGradient>
<linearGradient id="paint2_linear_2003_3173" x1="977.092" y1="427.321" x2="1274.03" y2="628.205" gradientUnits="userSpaceOnUse">
<stop stop-color="white"/>
<stop offset="0.913767" stop-color="#999999"/>
</linearGradient>
<linearGradient id="paint3_linear_2003_3173" x1="1043.86" y1="455.906" x2="1245.96" y2="603.836" gradientUnits="userSpaceOnUse">
<stop stop-color="white"/>
<stop offset="0.913767" stop-color="#999999"/>
</linearGradient>
<linearGradient id="paint4_linear_2003_3173" x1="1158" y1="526.406" x2="1289.01" y2="602.229" gradientUnits="userSpaceOnUse">
<stop stop-color="white"/>
<stop offset="0.913767" stop-color="#999999"/>
</linearGradient>
<linearGradient id="paint5_linear_2003_3173" x1="335.319" y1="-106.373" x2="377.261" y2="120.323" gradientUnits="userSpaceOnUse">
<stop stop-color="#999999"/>
<stop offset="1" stop-color="white"/>
</linearGradient>
<linearGradient id="paint6_linear_2003_3173" x1="225.337" y1="-77.4548" x2="305.434" y2="224.777" gradientUnits="userSpaceOnUse">
<stop stop-color="#999999"/>
<stop offset="1" stop-color="white"/>
</linearGradient>
<linearGradient id="paint7_linear_2003_3173" x1="36.9259" y1="36.4039" x2="158.228" y2="308.827" gradientUnits="userSpaceOnUse">
<stop stop-color="#999999"/>
<stop offset="1" stop-color="white"/>
</linearGradient>
<linearGradient id="paint8_linear_2003_3173" x1="17.637" y1="77.3805" x2="104.629" y2="267.042" gradientUnits="userSpaceOnUse">
<stop stop-color="#999999"/>
<stop offset="1" stop-color="white"/>
</linearGradient>
<linearGradient id="paint9_linear_2003_3173" x1="-59.9794" y1="62.1745" x2="-9.8964" y2="179.299" gradientUnits="userSpaceOnUse">
<stop stop-color="#999999"/>
<stop offset="1" stop-color="white"/>
</linearGradient>
<linearGradient id="paint10_linear_2003_3173" x1="64.4078" y1="352.289" x2="-177.8" y2="693.667" gradientUnits="userSpaceOnUse">
<stop stop-color="#B3B3B3" stop-opacity="0"/>
<stop offset="0.541871" stop-color="#7A7A7A" stop-opacity="0.3"/>
</linearGradient>
<linearGradient id="paint11_linear_2003_3173" x1="304.042" y1="196.596" x2="123.049" y2="709.442" gradientUnits="userSpaceOnUse">
<stop stop-color="#B3B3B3" stop-opacity="0"/>
<stop offset="1" stop-color="#7A7A7A" stop-opacity="0.3"/>
</linearGradient>
<linearGradient id="paint12_linear_2003_3173" x1="437.63" y1="112.131" x2="318.526" y2="694.426" gradientUnits="userSpaceOnUse">
<stop stop-color="#B3B3B3" stop-opacity="0"/>
<stop offset="1" stop-color="#7A7A7A" stop-opacity="0.3"/>
</linearGradient>
<linearGradient id="paint13_linear_2003_3173" x1="574.343" y1="17.3693" x2="529.359" y2="689.033" gradientUnits="userSpaceOnUse">
<stop stop-color="#B3B3B3" stop-opacity="0"/>
<stop offset="1" stop-color="#7A7A7A" stop-opacity="0.3"/>
</linearGradient>
<linearGradient id="paint14_linear_2003_3173" x1="663.491" y1="17.2713" x2="708.442" y2="688.818" gradientUnits="userSpaceOnUse">
<stop stop-color="#B3B3B3" stop-opacity="0"/>
<stop offset="1" stop-color="#7A7A7A" stop-opacity="0.3"/>
</linearGradient>
<linearGradient id="paint15_linear_2003_3173" x1="749.677" y1="17.7485" x2="880.482" y2="486.866" gradientUnits="userSpaceOnUse">
<stop stop-color="#B3B3B3" stop-opacity="0"/>
<stop offset="1" stop-color="#7A7A7A" stop-opacity="0.3"/>
</linearGradient>
<linearGradient id="paint16_linear_2003_3173" x1="862.409" y1="7.95859" x2="999.639" y2="396.777" gradientUnits="userSpaceOnUse">
<stop stop-color="#B3B3B3" stop-opacity="0"/>
<stop offset="1" stop-color="#7A7A7A" stop-opacity="0.3"/>
</linearGradient>
<linearGradient id="paint17_linear_2003_3173" x1="929.209" y1="16.862" x2="1114.9" y2="371.869" gradientUnits="userSpaceOnUse">
<stop stop-color="#B3B3B3" stop-opacity="0"/>
<stop offset="1" stop-color="#7A7A7A" stop-opacity="0.3"/>
</linearGradient>
<linearGradient id="paint18_linear_2003_3173" x1="1017.35" y1="17.041" x2="1578.03" y2="784.391" gradientUnits="userSpaceOnUse">
<stop stop-color="#B3B3B3" stop-opacity="0"/>
<stop offset="1" stop-color="#7A7A7A" stop-opacity="0.3"/>
</linearGradient>
<linearGradient id="paint19_linear_2003_3173" x1="512.639" y1="396.902" x2="512.638" y2="397.902" gradientUnits="userSpaceOnUse">
<stop stop-color="#B3B3B3" stop-opacity="0"/>
<stop offset="1" stop-color="#7A7A7A" stop-opacity="0.3"/>
</linearGradient>
<linearGradient id="paint20_linear_2003_3173" x1="767.048" y1="301.828" x2="767.048" y2="302.828" gradientUnits="userSpaceOnUse">
<stop stop-color="#B3B3B3" stop-opacity="0"/>
<stop offset="1" stop-color="#7A7A7A" stop-opacity="0.3"/>
</linearGradient>
<linearGradient id="paint21_linear_2003_3173" x1="789.023" y1="224.688" x2="789.023" y2="225.688" gradientUnits="userSpaceOnUse">
<stop stop-color="#B3B3B3" stop-opacity="0"/>
<stop offset="1" stop-color="#7A7A7A" stop-opacity="0.3"/>
</linearGradient>
<linearGradient id="paint22_linear_2003_3173" x1="797.996" y1="112.297" x2="797.996" y2="113.297" gradientUnits="userSpaceOnUse">
<stop stop-color="#B3B3B3" stop-opacity="0"/>
<stop offset="1" stop-color="#7A7A7A" stop-opacity="0.3"/>
</linearGradient>
<linearGradient id="paint23_linear_2003_3173" x1="802.568" y1="156.938" x2="802.568" y2="157.938" gradientUnits="userSpaceOnUse">
<stop stop-color="#B3B3B3" stop-opacity="0"/>
<stop offset="1" stop-color="#7A7A7A" stop-opacity="0.3"/>
</linearGradient>
<clipPath id="clip0_2003_3173">
<rect width="1235" height="688" fill="white"/>
</clipPath>
</defs>
</svg>
