<svg width="50" height="50" viewBox="0 0 50 50" fill="none" xmlns="http://www.w3.org/2000/svg">
<path d="M16.8894 38.0143C11.0392 33.5071 4.16797 28.2131 4.16797 19.0358C4.16797 8.90469 15.6266 1.7199 25.0013 11.4598L29.168 15.6237C29.7782 16.2338 30.7676 16.2336 31.3778 15.6233C31.9878 15.013 31.9876 14.0237 31.3773 13.4136L27.3523 9.39002C36.1857 2.92329 45.8346 9.73904 45.8346 19.0358C45.8346 28.2131 38.9634 33.5071 33.1132 38.0143C32.5053 38.4829 31.9082 38.9429 31.3311 39.3979C29.168 41.1031 27.0846 42.7085 25.0013 42.7085C22.918 42.7085 20.8346 41.1031 18.6716 39.3979C18.0944 38.9429 17.4974 38.4829 16.8894 38.0143Z" fill="#757575"/>
</svg>
