<svg width="48" height="48" viewBox="0 0 48 48" fill="none" xmlns="http://www.w3.org/2000/svg">
<path d="M14.5391 14.5391L17 17M25 8H35.6C37.8402 8 38.9604 8 39.816 8.43598C40.5686 8.81946 41.1806 9.43138 41.564 10.184C42 11.0397 42 12.1598 42 14.4V32M6 32V25M16 11C16 13.7614 13.7614 16 11 16C8.23858 16 6 13.7614 6 11C6 8.23858 8.23858 6 11 6C13.7614 6 16 8.23858 16 11ZM4 32H44V33.6C44 35.8402 44 36.9604 43.564 37.816C43.1806 38.5686 42.5686 39.1806 41.816 39.564C40.9604 40 39.8402 40 37.6 40H10.4C8.1598 40 7.03968 40 6.18404 39.564C5.43138 39.1806 4.81946 38.5686 4.43598 37.816C4 36.9604 4 35.8402 4 33.6V32Z" stroke="#757575" stroke-width="4" stroke-linecap="round" stroke-linejoin="round"/>
</svg>
