<svg width="56" height="56" viewBox="0 0 56 56" fill="none" xmlns="http://www.w3.org/2000/svg">
<g clip-path="url(#clip0_731_7507)">
<path d="M25.9051 39.901L25.9249 39.9045M28.1186 15.7483L32.0858 16.4479M19.3018 44.8724L30.4098 46.8311C32.6316 47.2228 33.7426 47.4187 34.6674 47.1359C35.4809 46.8873 36.1949 46.3873 36.7068 45.708C37.2888 44.9356 37.4847 43.8246 37.8765 41.6028L41.9337 18.5934C42.3254 16.3716 42.5213 15.2606 42.2385 14.3358C41.9899 13.5223 41.49 12.8083 40.8106 12.2964C40.0383 11.7144 38.9273 11.5185 36.7055 11.1267L25.5974 9.16805C23.3756 8.77629 22.2647 8.5804 21.3399 8.86317C20.5263 9.11188 19.8124 9.61176 19.3005 10.2912C18.7184 11.0635 18.5225 12.1744 18.1308 14.3963L14.0736 37.4057C13.6818 39.6275 13.4859 40.7385 13.7687 41.6634C14.0174 42.4768 14.5173 43.1908 15.1967 43.7027C15.9691 44.2848 17.08 44.4806 19.3018 44.8724Z" stroke="#757575" stroke-width="4.02835" stroke-linecap="round" stroke-linejoin="round"/>
</g>
<defs>
<clipPath id="clip0_731_7507">
<rect width="48.3402" height="48.3402" fill="white" transform="translate(8.39453) rotate(10)"/>
</clipPath>
</defs>
</svg>
