<svg width="50" height="50" viewBox="0 0 50 50" fill="none" xmlns="http://www.w3.org/2000/svg">
<path d="M6.60874 43.3925C9.04953 45.8333 12.9779 45.8333 20.8346 45.8333H29.168C37.0246 45.8333 40.9532 45.8333 43.3938 43.3925C45.8346 40.9519 45.8346 37.0233 45.8346 29.1667C45.8346 26.7296 45.8346 24.6706 45.7617 22.9167M43.3938 14.9408C40.9532 12.5 37.0246 12.5 29.168 12.5H20.8346C12.9779 12.5 9.04953 12.5 6.60874 14.9408C4.16797 17.3816 4.16797 21.31 4.16797 29.1667C4.16797 31.6037 4.16797 33.6627 4.2408 35.4167" stroke="#757575" stroke-width="3.125" stroke-linecap="round"/>
<path d="M25.0013 4.16602C28.9296 4.16602 30.8938 4.16602 32.1142 5.38641C33.3346 6.60679 33.3346 8.57097 33.3346 12.4993M17.8884 5.38641C16.668 6.60679 16.668 8.57097 16.668 12.4993" stroke="#757575" stroke-width="3.125" stroke-linecap="round"/>
<path d="M24.9987 36.1117C27.2999 36.1117 29.1654 34.5571 29.1654 32.6396C29.1654 30.7219 27.2999 29.1673 24.9987 29.1673C22.6974 29.1673 20.832 27.6127 20.832 25.695C20.832 23.7775 22.6974 22.2229 24.9987 22.2229M24.9987 36.1117C22.6974 36.1117 20.832 34.5571 20.832 32.6396M24.9987 36.1117V37.5007M24.9987 22.2229V20.834M24.9987 22.2229C27.2999 22.2229 29.1654 23.7775 29.1654 25.695" stroke="#757575" stroke-width="3.125" stroke-linecap="round"/>
</svg>
