<svg width="340" height="490" viewBox="0 0 340 490" fill="none" xmlns="http://www.w3.org/2000/svg">
<path d="M0 16C0 7.16343 7.16344 0 16 0H172.147C178.7 0 184.59 3.99556 187.013 10.0839L198.487 38.9161C200.91 45.0044 206.8 49 213.353 49H324C332.837 49 340 56.1634 340 65V474C340 482.837 332.837 490 324 490H16C7.16344 490 0 482.837 0 474V16Z" fill="url(#paint0_linear_865_3259)" fill-opacity=".915"/>
<path d="M50.292 34V20.7H53.18L57.417 29.136L61.597 20.7H64.485V34H62.053V24.823L58.348 32.1H56.429L52.724 24.823V34H50.292ZM71.0554 34.228C70.1434 34.228 69.3201 34.019 68.5854 33.601C67.8634 33.183 67.2871 32.6067 66.8564 31.872C66.4384 31.1247 66.2294 30.2633 66.2294 29.288C66.2294 28.3127 66.4448 27.4577 66.8754 26.723C67.3061 25.9757 67.8824 25.393 68.6044 24.975C69.3391 24.557 70.1624 24.348 71.0744 24.348C71.9738 24.348 72.7844 24.557 73.5064 24.975C74.2411 25.393 74.8174 25.9757 75.2354 26.723C75.6661 27.4577 75.8814 28.3127 75.8814 29.288C75.8814 30.2633 75.6661 31.1247 75.2354 31.872C74.8174 32.6067 74.2411 33.183 73.5064 33.601C72.7718 34.019 71.9548 34.228 71.0554 34.228ZM71.0554 32.119C71.6888 32.119 72.2398 31.8847 72.7084 31.416C73.1771 30.9347 73.4114 30.2253 73.4114 29.288C73.4114 28.3507 73.1771 27.6477 72.7084 27.179C72.2398 26.6977 71.6951 26.457 71.0744 26.457C70.4284 26.457 69.8711 26.6977 69.4024 27.179C68.9464 27.6477 68.7184 28.3507 68.7184 29.288C68.7184 30.2253 68.9464 30.9347 69.4024 31.416C69.8711 31.8847 70.4221 32.119 71.0554 32.119ZM81.4759 34.228C80.6399 34.228 79.9052 34.095 79.2719 33.829C78.6386 33.5503 78.1319 33.1703 77.7519 32.689C77.3719 32.2077 77.1439 31.6503 77.0679 31.017H79.5189C79.5949 31.3843 79.7976 31.701 80.1269 31.967C80.4689 32.2203 80.9059 32.347 81.4379 32.347C81.9699 32.347 82.3562 32.2393 82.5969 32.024C82.8502 31.8087 82.9769 31.5617 82.9769 31.283C82.9769 30.8777 82.7996 30.6053 82.4449 30.466C82.0902 30.314 81.5962 30.1683 80.9629 30.029C80.5576 29.9403 80.1459 29.8327 79.7279 29.706C79.3099 29.5793 78.9236 29.421 78.5689 29.231C78.2269 29.0283 77.9482 28.775 77.7329 28.471C77.5176 28.1543 77.4099 27.768 77.4099 27.312C77.4099 26.476 77.7392 25.773 78.3979 25.203C79.0692 24.633 80.0066 24.348 81.2099 24.348C82.3246 24.348 83.2112 24.6077 83.8699 25.127C84.5412 25.6463 84.9402 26.362 85.0669 27.274H82.7679C82.6286 26.5773 82.1029 26.229 81.1909 26.229C80.7349 26.229 80.3802 26.3177 80.1269 26.495C79.8862 26.6723 79.7659 26.894 79.7659 27.16C79.7659 27.4387 79.9496 27.6603 80.3169 27.825C80.6842 27.9897 81.1719 28.1417 81.7799 28.281C82.4386 28.433 83.0402 28.604 83.5849 28.794C84.1422 28.9713 84.5856 29.2437 84.9149 29.611C85.2442 29.9657 85.4089 30.4787 85.4089 31.15C85.4216 31.7327 85.2696 32.2583 84.9529 32.727C84.6362 33.1957 84.1802 33.563 83.5849 33.829C82.9896 34.095 82.2866 34.228 81.4759 34.228ZM90.9904 34C90.0024 34 89.2108 33.7593 88.6154 33.278C88.0201 32.7967 87.7224 31.9417 87.7224 30.713V26.609H86.1074V24.576H87.7224L88.0074 22.049H90.1544V24.576H92.7004V26.609H90.1544V30.732C90.1544 31.188 90.2494 31.5047 90.4394 31.682C90.6421 31.8467 90.9841 31.929 91.4654 31.929H92.6434V34H90.9904ZM98.4229 34V20.7H103.344C104.408 20.7 105.288 20.8773 105.985 21.232C106.682 21.5867 107.201 22.0743 107.543 22.695C107.885 23.3157 108.056 24.0123 108.056 24.785C108.056 25.5197 107.891 26.1973 107.562 26.818C107.233 27.426 106.72 27.92 106.023 28.3C105.326 28.6673 104.433 28.851 103.344 28.851H100.855V34H98.4229ZM100.855 26.875H103.192C104.041 26.875 104.649 26.6913 105.016 26.324C105.396 25.944 105.586 25.431 105.586 24.785C105.586 24.1263 105.396 23.6133 105.016 23.246C104.649 22.866 104.041 22.676 103.192 22.676H100.855V26.875ZM113.471 34.228C112.559 34.228 111.736 34.019 111.001 33.601C110.279 33.183 109.703 32.6067 109.272 31.872C108.854 31.1247 108.645 30.2633 108.645 29.288C108.645 28.3127 108.861 27.4577 109.291 26.723C109.722 25.9757 110.298 25.393 111.02 24.975C111.755 24.557 112.578 24.348 113.49 24.348C114.39 24.348 115.2 24.557 115.922 24.975C116.657 25.393 117.233 25.9757 117.651 26.723C118.082 27.4577 118.297 28.3127 118.297 29.288C118.297 30.2633 118.082 31.1247 117.651 31.872C117.233 32.6067 116.657 33.183 115.922 33.601C115.188 34.019 114.371 34.228 113.471 34.228ZM113.471 32.119C114.105 32.119 114.656 31.8847 115.124 31.416C115.593 30.9347 115.827 30.2253 115.827 29.288C115.827 28.3507 115.593 27.6477 115.124 27.179C114.656 26.6977 114.111 26.457 113.49 26.457C112.844 26.457 112.287 26.6977 111.818 27.179C111.362 27.6477 111.134 28.3507 111.134 29.288C111.134 30.2253 111.362 30.9347 111.818 31.416C112.287 31.8847 112.838 32.119 113.471 32.119ZM119.997 38.18V24.576H122.163L122.429 25.925C122.733 25.507 123.132 25.1397 123.626 24.823C124.133 24.5063 124.785 24.348 125.583 24.348C126.47 24.348 127.261 24.5633 127.958 24.994C128.655 25.4247 129.206 26.0137 129.611 26.761C130.016 27.5083 130.219 28.357 130.219 29.307C130.219 30.257 130.016 31.1057 129.611 31.853C129.206 32.5877 128.655 33.1703 127.958 33.601C127.261 34.019 126.47 34.228 125.583 34.228C124.874 34.228 124.253 34.095 123.721 33.829C123.189 33.563 122.758 33.1893 122.429 32.708V38.18H119.997ZM125.07 32.1C125.843 32.1 126.482 31.8403 126.989 31.321C127.496 30.8017 127.749 30.1303 127.749 29.307C127.749 28.4837 127.496 27.806 126.989 27.274C126.482 26.742 125.843 26.476 125.07 26.476C124.285 26.476 123.639 26.742 123.132 27.274C122.638 27.7933 122.391 28.4647 122.391 29.288C122.391 30.1113 122.638 30.789 123.132 31.321C123.639 31.8403 124.285 32.1 125.07 32.1ZM135.45 34.228C134.272 34.228 133.36 33.8607 132.714 33.126C132.081 32.3913 131.764 31.3147 131.764 29.896V24.576H134.177V29.668C134.177 30.4787 134.342 31.0993 134.671 31.53C135.001 31.9607 135.52 32.176 136.229 32.176C136.901 32.176 137.452 31.9353 137.882 31.454C138.326 30.9727 138.547 30.3013 138.547 29.44V24.576H140.979V34H138.832L138.642 32.404C138.351 32.9613 137.927 33.4047 137.369 33.734C136.825 34.0633 136.185 34.228 135.45 34.228ZM143.001 34V20.32H145.433V34H143.001ZM150.692 34.228C149.881 34.228 149.216 34.1013 148.697 33.848C148.178 33.582 147.791 33.2337 147.538 32.803C147.285 32.3723 147.158 31.8973 147.158 31.378C147.158 30.504 147.5 29.7947 148.184 29.25C148.868 28.7053 149.894 28.433 151.262 28.433H153.656V28.205C153.656 27.559 153.472 27.084 153.105 26.78C152.738 26.476 152.282 26.324 151.737 26.324C151.243 26.324 150.812 26.4443 150.445 26.685C150.078 26.913 149.85 27.255 149.761 27.711H147.386C147.449 27.027 147.677 26.4317 148.07 25.925C148.475 25.4183 148.995 25.032 149.628 24.766C150.261 24.4873 150.971 24.348 151.756 24.348C153.099 24.348 154.156 24.6837 154.929 25.355C155.702 26.0263 156.088 26.9763 156.088 28.205V34H154.017L153.789 32.48C153.51 32.9867 153.118 33.4047 152.611 33.734C152.117 34.0633 151.477 34.228 150.692 34.228ZM151.243 32.328C151.94 32.328 152.478 32.1 152.858 31.644C153.251 31.188 153.498 30.6243 153.599 29.953H151.528C150.882 29.953 150.42 30.0733 150.141 30.314C149.862 30.542 149.723 30.827 149.723 31.169C149.723 31.5363 149.862 31.8213 150.141 32.024C150.42 32.2267 150.787 32.328 151.243 32.328ZM157.934 34V24.576H160.1L160.328 26.343C160.67 25.735 161.132 25.2537 161.715 24.899C162.31 24.5317 163.007 24.348 163.805 24.348V26.913H163.121C162.589 26.913 162.114 26.9953 161.696 27.16C161.278 27.3247 160.948 27.6097 160.708 28.015C160.48 28.4203 160.366 28.984 160.366 29.706V34H157.934Z" fill="#0A0A0A"/>
<path d="M26.7933 24.6412C28.7542 22.674 29.3575 19 29.3575 19C29.3575 19 30.3195 22.6486 32.1117 24.6412C33.8427 26.5657 38 27.4956 38 27.4956C38 27.4956 33.9119 28.6416 32.1117 30.5429C30.4505 32.2975 29.3575 36 29.3575 36C29.3575 36 28.4041 32.3009 26.7933 30.5429C25.0006 28.5863 21 27.4956 21 27.4956C21 27.4956 24.9451 26.4954 26.7933 24.6412Z" fill="#0A0A0A"/>
<defs>
<linearGradient id="paint0_linear_865_3259" x1="11" y1="483.5" x2="344" y2="40" gradientUnits="userSpaceOnUse">
<stop stop-color="#3CB371"/>
<stop offset="0.247117" stop-color="#6FDBB4"/>
<stop offset="0.402062" stop-color="#69C8B6"/>
<stop offset="0.618072" stop-color="#54CBD5"/>
<stop offset="1" stop-color="#31A859"/>
</linearGradient>
</defs>
</svg>
