<svg width="1235" height="688" viewBox="0 0 1235 688" fill="none" xmlns="http://www.w3.org/2000/svg">
<g style="mix-blend-mode:overlay">
<path d="M948.777 884.416L948.883 884.579L948.996 884.737C949.347 885.225 949.633 885.995 949.536 887.121C949.436 888.284 948.919 889.728 947.807 891.151C946.698 892.57 945.176 893.727 943.498 894.421C941.877 895.092 940.373 895.228 939.21 895.044C881.922 882.029 834.569 850.617 804.096 805.818L804.002 805.68L803.903 805.547C777.927 770.585 748.481 715.899 753.466 652.023L753.466 652.017C753.581 650.536 754.377 648.627 756.099 646.934C757.793 645.269 759.93 644.271 761.893 644.03C763.817 643.876 765.05 644.462 765.675 645.036C766.257 645.571 766.73 646.465 766.624 647.886L766.606 648.115L766.602 648.345C765.616 704.019 782.741 755.78 815.927 796.631C845.656 840.129 891.427 870.394 946.104 883.092L946.354 883.15L946.608 883.192C947.842 883.396 948.472 883.946 948.777 884.416Z" stroke="url(#paint0_linear_2059_3230)" stroke-opacity="0.4" stroke-width="16"/>
<path d="M852.272 519.762L852.267 519.775C840.861 546.542 829.284 581.019 829.407 620.672C829.531 660.468 841.437 704.964 876.137 751.706C898.56 783.852 929.953 808.801 967.538 824.49C1005.14 840.188 1047.78 846.134 1091.79 841.992L1091.8 841.991C1093.73 841.806 1094.96 842.389 1095.57 842.944C1096.12 843.45 1096.58 844.306 1096.47 845.69L1096.47 845.752L1096.47 845.814C1096.42 846.539 1096.21 847.407 1095.74 848.341C1095.27 849.275 1094.58 850.204 1093.69 851.034C1092.8 851.863 1091.77 852.533 1090.69 852.998C1089.6 853.465 1088.55 853.693 1087.6 853.728L1087.39 853.736L1087.18 853.756C1041.09 857.964 996.831 851.621 958.095 835.426C919.376 819.239 887.253 793.667 864.32 760.918L864.255 760.826L864.188 760.736C837.01 724.156 821.68 686.368 817.743 646.75C813.803 607.111 821.219 565.122 840.328 520.091C841.137 518.256 842.74 516.482 844.851 515.347C846.967 514.208 849.007 514.016 850.439 514.339C851.35 514.559 851.967 514.955 852.369 515.374C852.602 515.757 852.778 516.256 852.825 516.898C852.881 517.667 852.748 518.652 852.272 519.762Z" stroke="url(#paint1_linear_2059_3230)" stroke-opacity="0.4" stroke-width="16"/>
<path d="M1315.01 501.727L1315.27 502.204L1315.59 502.642C1315.91 503.087 1316.2 503.807 1316.13 504.902C1316.06 506.037 1315.59 507.487 1314.53 508.979L1314.49 509.035L1314.45 509.092C1313.8 510.039 1312.94 510.928 1311.93 511.673C1310.91 512.419 1309.81 512.969 1308.72 513.306C1307.62 513.643 1306.62 513.741 1305.79 513.679L1305.19 521.657L1305.79 513.679C1304.96 513.617 1304.35 513.403 1303.93 513.168L1303.83 513.107L1303.72 513.048C1229.4 473.833 1142.65 481.598 1072.14 533.88C1064.47 538.934 1057.69 545.288 1052.27 552.545C1046.8 559.864 1042.79 567.989 1040.6 576.41C1038.4 584.835 1038.06 593.409 1039.76 601.522C1041.43 609.526 1045.03 616.825 1050.36 622.863C1060.84 636.819 1074.08 644.452 1090.9 644.204C1107.04 643.966 1125.37 636.458 1146.52 623.283L1146.53 623.281C1164.61 612.001 1185 607.151 1203.27 609.352C1221.47 611.542 1236 620.492 1244.37 633.85L1244.58 634.18L1244.82 634.488C1250 641.213 1253.43 649.247 1254.81 658.151C1256.19 667.069 1255.5 676.715 1252.65 686.488C1249.79 696.264 1244.84 705.902 1238.05 714.75C1231.25 723.596 1222.81 731.403 1213.24 737.65L1213.09 737.75L1212.94 737.858C1162.15 774.476 1102.12 793.2 1046.13 790.278C990.197 787.359 943.078 763.139 914.486 723.508L914.453 723.463L914.42 723.418C884.495 683.144 875.341 629.408 889.716 573.591C904.097 517.752 940.838 464.632 992.175 426.082C1029.42 399.863 1070.05 379.291 1112.11 365.33C1114.35 364.663 1116.08 364.943 1117.07 365.434C1117.92 365.857 1118.42 366.5 1118.6 367.405C1118.68 367.912 1118.66 368.578 1118.45 369.382C1118.23 370.223 1117.81 371.156 1117.15 372.095C1116.49 373.033 1115.63 373.91 1114.63 374.648C1113.62 375.387 1112.54 375.939 1111.45 376.287L1111.4 376.302L1111.36 376.317C1071.62 389.569 1033.29 408.949 998.114 433.555L998.008 433.629L997.904 433.707C950.612 469.128 916.346 518.294 902.875 570.69C889.399 623.106 897.814 674.741 927.035 713.933C940.677 733.241 958.861 748.931 980.478 760.131C1002.12 771.343 1026.73 777.814 1052.84 779.282C1078.96 780.75 1106.1 777.191 1132.74 768.883C1159.29 760.601 1184.87 747.746 1208.04 731.064C1215.6 726.342 1222.35 720.354 1227.86 713.462C1233.42 706.497 1237.63 698.711 1240.14 690.574L1232.5 688.213L1240.14 690.574C1242.65 682.434 1243.43 674.074 1242.27 666.055C1241.13 658.209 1238.17 650.912 1233.52 644.694C1229.89 638.483 1224.86 633.275 1218.74 629.358C1212.47 625.346 1205.25 622.809 1197.56 621.787C1189.88 620.765 1181.86 621.273 1173.96 623.193C1166.08 625.108 1158.42 628.401 1151.4 632.859C1124.33 649.304 1101.65 656.654 1083.19 656.216C1065.21 655.79 1050.39 647.969 1038.44 631.893L1038.29 631.691L1038.13 631.499C1032.52 624.857 1028.7 616.819 1026.97 607.839C1025.25 598.844 1025.65 589.041 1028.3 579.049C1030.95 569.055 1035.78 559.145 1042.55 550.006C1049.31 540.869 1057.82 532.766 1067.52 526.252L1067.68 526.146L1067.83 526.032C1144.15 469.327 1236.45 460.499 1314.85 501.453C1314.9 501.542 1314.96 501.633 1315.01 501.727Z" stroke="url(#paint2_linear_2059_3230)" stroke-opacity="0.4" stroke-width="16"/>
<path d="M1220.59 420.695L1220.51 420.69L1220.42 420.688C1158.17 418.639 1093.32 439.83 1039.12 479.612L1039.1 479.626L1039.08 479.64C1026.07 489.306 999.045 511.895 983.288 543.32C975.352 559.146 970.172 577.419 971.268 597.48C972.365 617.556 979.719 638.859 995.956 660.759C1005.18 674.302 1017.53 685.413 1032.21 693.463C1046.94 701.536 1063.69 706.346 1081.43 707.707L1081.52 707.714L1081.6 707.718C1097.97 708.631 1114.89 706.323 1131.35 701.001C1147.77 695.687 1163.46 687.463 1177.5 676.828C1179.46 675.426 1181.6 674.859 1183.31 674.956C1184.98 675.051 1185.9 675.722 1186.34 676.307L1186.37 676.359L1186.41 676.41C1186.64 676.71 1186.83 677.099 1186.93 677.606C1187.02 678.123 1187.03 678.796 1186.83 679.598C1186.64 680.404 1186.26 681.294 1185.65 682.185L1192.25 686.702L1185.65 682.185C1185.04 683.076 1184.24 683.908 1183.3 684.608L1183.26 684.638L1183.22 684.669C1167.42 696.722 1149.79 706.062 1131.41 712.154C1113.05 718.234 1094.35 720.944 1076.39 720.191C1057.12 718.812 1039.18 713.729 1023.55 705.329C1007.9 696.917 994.848 685.326 985.084 671.245L985.01 671.138L984.932 671.033C956.315 632.518 954.005 594.421 965.791 560.406C977.725 525.964 1004.33 495.246 1034.18 473.064C1091.62 430.655 1160.09 408.177 1225.33 410.002L1225.66 410.011L1225.98 409.993C1226.96 409.94 1227.74 410.102 1228.31 410.337C1228.79 410.537 1229.13 410.792 1229.37 411.056C1229.77 411.7 1230.05 412.671 1229.87 413.998C1229.66 414.738 1229.29 415.54 1228.74 416.342C1228.13 417.231 1227.34 418.061 1226.4 418.759C1225.46 419.457 1224.44 419.978 1223.41 420.304C1222.38 420.631 1221.42 420.741 1220.59 420.695Z" stroke="url(#paint3_linear_2059_3230)" stroke-opacity="0.4" stroke-width="16"/>
<path d="M1298.41 590.193L1298.53 590.365L1298.65 590.532C1303.61 597.242 1308.11 604.281 1312.14 611.618L1312.14 611.625L1312.15 611.631C1312.34 611.982 1312.49 612.452 1312.52 613.062C1312.55 613.68 1312.46 614.445 1312.14 615.308C1311.83 616.172 1311.32 617.078 1310.59 617.943C1309.87 618.807 1308.98 619.573 1307.98 620.181C1306.98 620.788 1305.94 621.199 1304.93 621.415C1303.93 621.632 1303.03 621.64 1302.29 621.519C1301.55 621.398 1301 621.156 1300.61 620.893C1300.23 620.634 1299.95 620.325 1299.76 619.977C1278.68 581.707 1250.14 558.678 1214.29 553.615L1214.15 553.595L1214.02 553.581C1197.26 551.801 1179.76 553.382 1162.58 558.151C1145.42 562.915 1128.87 570.777 1113.91 581.245C1112.95 581.891 1111.93 582.349 1110.93 582.613C1109.92 582.88 1109 582.928 1108.23 582.834C1107.47 582.741 1106.91 582.515 1106.51 582.267C1106.13 582.024 1105.86 581.732 1105.67 581.411L1105.63 581.334L1105.58 581.257C1105.17 580.579 1104.86 579.36 1105.4 577.626C1105.94 575.855 1107.28 573.963 1109.29 572.57L1109.3 572.562C1126.38 560.717 1145.19 551.913 1164.57 546.667C1183.87 541.441 1203.28 539.866 1221.61 541.959C1254.59 547.717 1281.7 564.932 1298.41 590.193Z" stroke="url(#paint4_linear_2059_3230)" stroke-opacity="0.4" stroke-width="16"/>
</g>
<g style="mix-blend-mode:overlay">
<path d="M266.727 -152.322L266.644 -152.505L266.552 -152.684C266.313 -153.15 266.135 -153.919 266.426 -155.052C266.727 -156.226 267.517 -157.658 268.947 -158.991C270.372 -160.32 272.189 -161.315 274.092 -161.804C275.934 -162.278 277.548 -162.202 278.729 -161.851C334.662 -141.084 377.407 -103.299 400.831 -54.4813L400.905 -54.326L400.987 -54.174C421.495 -15.7659 442.268 42.8236 426.618 105.977L426.616 105.983C426.246 107.482 425.081 109.364 422.953 110.896C420.861 112.401 418.415 113.142 416.293 113.114C414.223 113.004 413.083 112.219 412.594 111.62C412.158 111.086 411.81 110.2 412.159 108.776L412.214 108.551L412.256 108.324C422.491 52.8336 413.728 -1.25362 386.829 -46.6318C363.872 -94.1935 322.448 -130.644 269.147 -150.726L268.906 -150.817L268.659 -150.892C267.409 -151.273 266.917 -151.899 266.727 -152.322Z" stroke="url(#paint5_linear_2059_3230)" stroke-opacity="0.45" stroke-width="16"/>
<path d="M304.107 225.169L304.115 225.157C320.102 199.979 337.546 167.121 343.997 127.494C350.474 87.7114 345.791 41.5952 318.341 -9.86669C300.917 -45.0755 273.199 -74.2801 237.693 -95.0503C202.17 -115.83 159.951 -127.531 114.711 -129.346L114.701 -129.346C112.609 -129.427 111.477 -130.21 111.005 -130.786C110.594 -131.286 110.252 -132.133 110.596 -133.52L110.611 -133.581L110.625 -133.641C110.794 -134.374 111.166 -135.243 111.826 -136.153C112.485 -137.062 113.377 -137.938 114.468 -138.681C115.559 -139.424 116.769 -139.98 118.001 -140.314C119.234 -140.649 120.395 -140.737 121.397 -140.641L121.607 -140.621L121.817 -140.612C169.293 -138.576 213.124 -126.234 249.7 -104.811C286.255 -83.3994 314.542 -53.5218 332.332 -17.7434L332.384 -17.6394L332.438 -17.537C353.899 22.6534 363.165 62.4526 360.584 102.559C358.001 142.701 343.514 183.684 316.643 226.143C315.469 227.944 313.459 229.575 311.017 230.466C308.565 231.36 306.376 231.264 304.945 230.735C304.063 230.393 303.533 229.934 303.223 229.51C303.074 229.138 302.984 228.653 303.041 228.027C303.111 227.253 303.413 226.259 304.107 225.169Z" stroke="url(#paint6_linear_2059_3230)" stroke-opacity="0.45" stroke-width="16"/>
<path d="M-167.087 182.308L-167.274 181.79L-167.531 181.302C-167.79 180.808 -167.975 180.03 -167.723 178.903C-167.462 177.735 -166.74 176.296 -165.382 174.904L-165.334 174.855L-165.287 174.805C-164.449 173.917 -163.407 173.121 -162.224 172.497C-161.041 171.873 -159.799 171.465 -158.599 171.277C-157.398 171.089 -156.332 171.136 -155.466 171.326C-154.603 171.515 -154 171.829 -153.61 172.132L-153.511 172.209L-153.409 172.283C-84.1992 222.565 4.9852 227.235 84.6909 184.764C93.2483 180.793 101.101 175.386 107.729 168.877C114.41 162.315 119.745 154.73 123.292 146.584C126.841 138.433 128.539 129.858 128.102 121.441C127.671 113.136 125.172 105.257 120.718 98.3948C112.29 82.7923 100.062 73.2151 83.0286 71.0431C66.6826 68.9588 46.9545 73.8549 23.425 84.075L23.4216 84.0765C3.205 92.8689 -18.3322 94.8168 -36.5825 89.9419C-54.7546 85.088 -68.0949 73.9391 -74.4746 59.2624L-74.6322 58.8999L-74.8248 58.5546C-79.026 51.0227 -81.2319 42.4209 -81.2253 33.2279C-81.2186 24.0192 -78.9885 14.3667 -74.5291 4.89347C-70.0686 -4.5819 -63.4977 -13.6175 -55.1724 -21.5861C-46.8483 -29.5533 -37.0036 -36.2295 -26.2716 -41.1635L-26.1067 -41.2393L-25.9454 -41.3225C31.4776 -70.9478 95.4493 -81.164 151.881 -70.1095C208.251 -59.0673 252.256 -27.8014 275.004 16.2993L275.03 16.3499L275.057 16.4002C299.055 61.3423 299.858 116.886 276.407 171.162C252.947 225.459 207.193 273.781 148.91 305.277C106.917 326.354 62.3854 341.241 17.4438 349.245C14.9939 349.608 13.2237 349.057 12.2729 348.403C11.4603 347.844 11.0607 347.121 11.0174 346.169C11.0216 345.634 11.1454 344.943 11.4976 344.136C11.8656 343.292 12.4587 342.383 13.3043 341.505C14.1487 340.628 15.1863 339.844 16.3573 339.226C17.5284 338.608 18.7579 338.196 19.9518 337.997L19.9984 337.989L20.0449 337.98C62.4494 330.366 104.392 316.372 143.958 296.656L144.073 296.599L144.185 296.538C197.727 267.688 240.24 223.109 262.182 172.266C284.132 121.405 283.778 68.1316 260.317 24.3729C249.525 2.92601 233.552 -15.5241 213.39 -29.94C193.208 -44.3704 169.271 -54.4458 143.022 -59.6969C116.775 -64.9474 88.6903 -65.2818 60.3751 -60.7589C32.1455 -56.2497 4.18041 -46.9921 -21.9512 -33.5322C-30.3414 -29.879 -38.1087 -24.8361 -44.7607 -18.7049C-51.4796 -12.5119 -56.9625 -5.2978 -60.7867 2.51665C-64.6118 10.333 -66.7157 18.6292 -66.8057 26.8704C-66.8938 34.9357 -65.0471 42.7187 -61.3069 49.6634C-58.6108 56.4525 -54.324 62.4323 -48.7358 67.2635C-43.0135 72.2105 -36.102 75.8044 -28.4871 77.9394C-20.8773 80.073 -12.6857 80.7179 -4.39616 79.9268C3.86826 79.1382 12.1276 76.9328 19.9303 73.4668C50.0444 60.7778 74.2973 56.6236 93.0387 59.746C111.293 62.7871 125.104 72.8475 134.679 90.78L134.799 91.005L134.933 91.222C139.582 98.7325 142.187 107.394 142.516 116.712C142.846 126.046 140.883 135.898 136.599 145.621C132.314 155.347 125.824 164.675 117.48 172.941C109.138 181.207 99.1826 188.173 88.2686 193.357L88.0988 193.438L87.933 193.527C1.35349 239.757 -93.8448 235.277 -166.965 182.611C-167.009 182.512 -167.05 182.411 -167.087 182.308Z" stroke="url(#paint7_linear_2059_3230)" stroke-opacity="0.45" stroke-width="16"/>
<path d="M207.821 129.987C210.376 109.093 206.525 86.0674 193.313 61.258C186.004 46.0106 174.928 32.9039 160.819 22.6837C146.671 12.4358 129.808 5.3294 111.297 1.65802L111.216 1.64193L111.135 1.62753C93.9935 -1.40538 75.7063 -1.18594 57.3608 2.18864C39.041 5.55849 20.9698 12.0175 4.19653 21.1652C1.61671 22.4937 -1.00958 22.8385 -2.98889 22.4858C-4.92524 22.1409 -5.74076 21.2712 -6.03985 20.711L-6.07196 20.6508L-6.1051 20.5912C-6.27072 20.2933 -6.39691 19.8967 -6.40347 19.3565C-6.4102 18.8011 -6.28778 18.0582 -5.89944 17.1734C-5.5101 16.2864 -4.88106 15.3247 -3.98223 14.391C-3.08489 13.4589 -1.98167 12.6214 -0.735675 11.9561L-0.693746 11.9338L-0.652082 11.9109C18.4891 1.39768 39.0624 -6.05265 59.8477 -10.0219C80.5954 -13.9839 101.076 -14.3868 120.1 -11.2864C140.403 -7.36873 158.562 0.222867 173.609 10.93C188.67 21.6474 200.362 35.3046 208.1 51.0919L208.161 51.2166L208.227 51.3391C231.416 94.7674 226.9 134.533 207.948 168.455C188.771 202.777 154.628 231.307 118.644 250.524C49.5282 287.176 -27.6133 301.691 -96.759 291.399L-97.0762 291.352L-97.396 291.33C-98.559 291.251 -99.4243 290.956 -100.006 290.626C-100.481 290.356 -100.773 290.063 -100.956 289.796C-101.233 289.137 -101.377 288.09 -100.892 286.637C-100.497 285.814 -99.8995 284.936 -99.0765 284.083C-98.1802 283.153 -97.0792 282.318 -95.8361 281.654C-94.593 280.99 -93.2863 280.54 -92.0152 280.312C-90.742 280.084 -89.5944 280.095 -88.6409 280.263L-88.5542 280.279L-88.4671 280.292C-22.9013 290.378 49.6819 276.802 114.402 242.697L114.421 242.687L114.44 242.677C129.99 234.374 162.705 214.563 185.131 184.244C196.414 168.991 205.271 150.838 207.821 129.987Z" stroke="url(#paint8_linear_2059_3230)" stroke-opacity="0.45" stroke-width="16"/>
<path d="M-136.527 94.3996L-136.617 94.2055L-136.717 94.0166C-140.622 86.6503 -144.015 79.017 -146.879 71.1504L-146.882 71.1433L-146.885 71.1361C-147.009 70.798 -147.087 70.3332 -147.017 69.7208C-146.945 69.0984 -146.717 68.3275 -146.236 67.4733C-145.754 66.6186 -145.053 65.7436 -144.132 64.9407C-143.212 64.1386 -142.133 63.4623 -140.968 62.9675C-139.802 62.4725 -138.623 62.1907 -137.521 62.1067C-136.418 62.0227 -135.47 62.142 -134.719 62.3695C-133.973 62.5953 -133.462 62.9133 -133.131 63.2114C-132.809 63.5017 -132.606 63.815 -132.485 64.1474C-117.434 105.327 -92.2674 132.229 -56.7813 142.136L-56.6486 142.173L-56.5146 142.206C-39.8445 146.247 -21.8895 147.031 -3.73532 144.597C14.4031 142.166 32.4285 136.567 49.2813 128.158C50.4127 127.614 51.5801 127.278 52.6911 127.143C53.8151 127.008 54.7946 127.089 55.5773 127.292C56.3553 127.494 56.8873 127.801 57.2276 128.087C57.5576 128.364 57.7556 128.659 57.8739 128.963L57.9076 129.049L57.9432 129.134C58.2135 129.782 58.3612 131.025 57.4963 132.754C56.615 134.517 54.8737 136.307 52.492 137.48L52.4806 137.485C33.153 147.038 12.5673 153.306 -7.99945 155.933C-28.4865 158.55 -48.4643 157.491 -66.7325 152.911C-99.2412 142.684 -123.816 121.821 -136.527 94.3996Z" stroke="url(#paint9_linear_2059_3230)" stroke-opacity="0.45" stroke-width="16"/>
</g>
<defs>
<linearGradient id="paint0_linear_2059_3230" x1="733.858" y1="653.365" x2="900.044" y2="640.845" gradientUnits="userSpaceOnUse">
<stop stop-color="white"/>
<stop offset="0.913767" stop-color="#999999"/>
</linearGradient>
<linearGradient id="paint1_linear_2059_3230" x1="789.892" y1="546.073" x2="1057.92" y2="564" gradientUnits="userSpaceOnUse">
<stop stop-color="white"/>
<stop offset="0.913767" stop-color="#999999"/>
</linearGradient>
<linearGradient id="paint2_linear_2059_3230" x1="977.092" y1="427.321" x2="1274.03" y2="628.205" gradientUnits="userSpaceOnUse">
<stop stop-color="white"/>
<stop offset="0.913767" stop-color="#999999"/>
</linearGradient>
<linearGradient id="paint3_linear_2059_3230" x1="1043.86" y1="455.906" x2="1245.96" y2="603.836" gradientUnits="userSpaceOnUse">
<stop stop-color="white"/>
<stop offset="0.913767" stop-color="#999999"/>
</linearGradient>
<linearGradient id="paint4_linear_2059_3230" x1="1158" y1="526.406" x2="1289.01" y2="602.229" gradientUnits="userSpaceOnUse">
<stop stop-color="white"/>
<stop offset="0.913767" stop-color="#999999"/>
</linearGradient>
<linearGradient id="paint5_linear_2059_3230" x1="335.319" y1="-106.373" x2="377.261" y2="120.323" gradientUnits="userSpaceOnUse">
<stop stop-color="#999999"/>
<stop offset="1" stop-color="white"/>
</linearGradient>
<linearGradient id="paint6_linear_2059_3230" x1="225.337" y1="-77.4548" x2="305.434" y2="224.777" gradientUnits="userSpaceOnUse">
<stop stop-color="#999999"/>
<stop offset="1" stop-color="white"/>
</linearGradient>
<linearGradient id="paint7_linear_2059_3230" x1="36.9259" y1="36.4039" x2="158.228" y2="308.827" gradientUnits="userSpaceOnUse">
<stop stop-color="#999999"/>
<stop offset="1" stop-color="white"/>
</linearGradient>
<linearGradient id="paint8_linear_2059_3230" x1="17.637" y1="77.3805" x2="104.629" y2="267.042" gradientUnits="userSpaceOnUse">
<stop stop-color="#999999"/>
<stop offset="1" stop-color="white"/>
</linearGradient>
<linearGradient id="paint9_linear_2059_3230" x1="-59.9794" y1="62.1745" x2="-9.8964" y2="179.299" gradientUnits="userSpaceOnUse">
<stop stop-color="#999999"/>
<stop offset="1" stop-color="white"/>
</linearGradient>
</defs>
</svg>
