<svg width="1235" height="688" viewBox="0 0 1235 688" fill="none" xmlns="http://www.w3.org/2000/svg">
<g style="mix-blend-mode:overlay">
<path d="M418.7 107L418.756 106.771L418.798 106.54C429.154 50.088 420.288 -4.93677 393.071 -51.1015C369.843 -99.4876 327.93 -136.57 274 -157" stroke="url(#paint0_linear_2071_6576)" stroke-opacity="0.5" stroke-width="28" stroke-linecap="round"/>
<path d="M308.221 225L308.229 224.988C324.707 199.562 342.686 166.381 349.335 126.365C356.011 86.1911 351.184 39.6216 322.892 -12.3462C304.933 -47.9011 276.364 -77.3928 239.768 -98.3672C203.154 -119.351 159.639 -131.167 113.01 -133H113" stroke="url(#paint1_linear_2071_6576)" stroke-opacity="0.5" stroke-width="28" stroke-linecap="round"/>
<path d="M2.06366 347C49.0154 338.967 95.4556 324.203 139.264 303.403L139.392 303.343L139.516 303.278C198.799 272.841 245.871 225.81 270.166 172.17C294.47 118.511 294.078 62.307 268.101 16.1411C256.152 -6.48556 238.466 -25.9506 216.142 -41.1596C193.796 -56.3838 167.292 -67.0134 138.228 -72.5534C109.167 -78.0927 78.0702 -78.4455 46.7186 -73.6738C15.4618 -68.9166 -15.502 -59.1497 -44.4358 -44.9494C-53.7258 -41.0952 -62.326 -35.7749 -69.6913 -29.3064C-77.1307 -22.7727 -83.2015 -15.1618 -87.4358 -6.91746C-91.6711 1.32888 -94.0006 10.0815 -94.1003 18.776C-94.1978 27.285 -92.1531 35.4962 -88.0118 42.8229C-85.0266 49.9855 -80.2801 56.2942 -74.0927 61.3912C-67.7567 66.6103 -60.1041 70.4019 -51.6726 72.6544C-43.2468 74.9053 -34.1768 75.5857 -24.9983 74.7511C-15.8477 73.9191 -6.70263 71.5924 1.93679 67.9357C35.2801 54.5487 62.1337 50.166 82.8848 53.4601C103.097 56.6685 118.389 67.2823 128.99 86.2013C139.592 105.12 129.123 86.4387 129.123 86.4387L129.272 86.6677C134.419 94.5913 137.304 103.729 137.668 113.56C138.033 123.407 135.86 133.801 131.116 144.059C126.372 154.32 119.186 164.161 109.947 172.882C100.711 181.603 89.6876 188.952 77.6032 194.421L77.4153 194.507L77.2316 194.601C-18.6321 243.374 -124.039 238.647 -205 183.084" stroke="url(#paint2_linear_2071_6576)" stroke-opacity="0.5" stroke-width="28" stroke-linecap="round"/>
<path d="M-7.39923 18.3734L-7.35761 18.3513C11.7635 8.21243 32.3152 1.02737 53.0787 -2.80056C73.8046 -6.62149 94.2637 -7.01004 113.268 -4.02003C133.549 -0.241852 151.689 7.07944 166.721 17.4053C181.766 27.7412 193.446 40.9121 201.175 56.1373L201.236 56.2575L201.302 56.3757C224.467 98.2577 219.956 136.607 201.024 169.322C181.867 202.422 147.759 229.936 111.813 248.469C42.77 283.816 -34.2905 297.814 -103.364 287.888L-103.681 287.843L-104 287.822" stroke="url(#paint3_linear_2071_6576)" stroke-opacity="0.5" stroke-width="28" stroke-linecap="round"/>
<path d="M-150 61L-149.997 61.0076L-149.994 61.0152C-147.085 69.3614 -143.638 77.4602 -139.671 85.2757L-139.569 85.4761L-139.478 85.682C-126.566 114.775 -101.601 136.911 -68.5778 147.761C-50.0202 152.62 -29.7259 153.744 -8.91434 150.967C11.9782 148.18 32.89 141.53 52.5238 131.395L52.5354 131.389" stroke="url(#paint4_linear_2071_6576)" stroke-opacity="0.5" stroke-width="28" stroke-linecap="round"/>
</g>
<g style="mix-blend-mode:overlay">
<path d="M783.221 636L783.166 636.248L783.125 636.498C772.967 697.655 781.664 757.265 808.36 807.277C831.144 859.695 872.257 899.867 925.156 922" stroke="url(#paint5_linear_2071_6576)" stroke-opacity="0.5" stroke-width="28" stroke-linecap="round"/>
<path d="M881.006 508.381L880.999 508.394C865.691 536.423 849.169 572.894 843.983 616.426C838.777 660.128 845.061 710.409 874.532 765.827C893.324 803.785 922.317 834.857 958.895 856.464C995.491 878.082 1038.55 889.563 1084.33 890.141L1084.34 890.141" stroke="url(#paint6_linear_2071_6576)" stroke-opacity="0.5" stroke-width="28" stroke-linecap="round"/>
<path d="M1172.58 376C1129.62 384.203 1087.14 399.281 1047.06 420.523L1046.95 420.584L1046.83 420.65C992.602 451.733 949.54 499.763 927.315 554.541C905.081 609.339 905.44 666.736 929.204 713.882C940.135 736.989 956.314 756.867 976.736 772.399C997.179 787.946 1021.42 798.801 1048.01 804.459C1074.6 810.116 1103.05 810.476 1131.73 805.603C1160.32 800.745 1188.65 790.771 1215.11 776.269C1223.61 772.333 1231.48 766.9 1238.22 760.294C1245.02 753.622 1250.58 745.849 1254.45 737.43C1258.33 729.008 1260.46 720.07 1260.55 711.191C1260.64 702.501 1258.77 694.116 1254.98 686.634C1252.25 679.319 1247.91 672.876 1242.25 667.671C1236.45 662.341 1229.45 658.469 1221.73 656.169C1214.03 653.87 1205.73 653.175 1197.33 654.028C1188.96 654.877 1180.6 657.254 1172.69 660.988C1142.19 674.659 1117.62 679.135 1098.64 675.771C1080.15 672.494 1066.16 661.655 1056.46 642.335C1046.76 623.014 1056.34 642.092 1056.34 642.092L1056.21 641.858C1051.5 633.766 1048.86 624.434 1048.52 614.395C1048.19 604.339 1050.18 593.724 1054.52 583.249C1058.86 572.77 1065.43 562.72 1073.88 553.814C1082.33 544.908 1092.42 537.403 1103.47 531.817L1103.64 531.73L1103.81 531.634C1191.51 481.826 1287.94 486.653 1362 543.395" stroke="url(#paint7_linear_2071_6576)" stroke-opacity="0.5" stroke-width="28" stroke-linecap="round"/>
<path d="M1201.2 730.968L1201.16 730.993C1182.4 742.407 1162.23 750.495 1141.86 754.804C1121.52 759.106 1101.44 759.543 1082.79 756.177C1062.89 751.924 1045.09 743.682 1030.34 732.058C1015.58 720.422 1004.11 705.595 996.529 688.455L996.469 688.32L996.404 688.187C973.673 641.038 978.1 597.866 996.678 561.038C1015.48 523.775 1048.95 492.801 1084.22 471.938C1151.97 432.146 1227.59 416.387 1295.38 427.561L1295.69 427.612L1296 427.636" stroke="url(#paint8_linear_2071_6576)" stroke-opacity="0.5" stroke-width="28" stroke-linecap="round"/>
<path d="M1325.66 677.078L1325.66 677.07L1325.66 677.062C1322.8 668.02 1319.42 659.246 1315.53 650.78L1315.43 650.562L1315.34 650.339C1302.68 618.821 1278.19 594.842 1245.8 583.087C1227.59 577.823 1207.69 576.605 1187.27 579.613C1166.78 582.633 1146.27 589.837 1127.01 600.817L1127 600.823" stroke="url(#paint9_linear_2071_6576)" stroke-opacity="0.5" stroke-width="28" stroke-linecap="round"/>
</g>
<defs>
<linearGradient id="paint0_linear_2071_6576" x1="340.958" y1="-111.881" x2="383.845" y2="118.66" gradientUnits="userSpaceOnUse">
<stop stop-color="#999999"/>
<stop offset="1" stop-color="white"/>
</linearGradient>
<linearGradient id="paint1_linear_2071_6576" x1="227.037" y1="-80.5953" x2="306.492" y2="225.412" gradientUnits="userSpaceOnUse">
<stop stop-color="#999999"/>
<stop offset="1" stop-color="white"/>
</linearGradient>
<linearGradient id="paint2_linear_2071_6576" x1="13.8035" y1="33.9046" x2="129.794" y2="312.129" gradientUnits="userSpaceOnUse">
<stop stop-color="#999999"/>
<stop offset="1" stop-color="white"/>
</linearGradient>
<linearGradient id="paint3_linear_2071_6576" x1="40.2521" y1="44.7585" x2="66.0749" y2="310.585" gradientUnits="userSpaceOnUse">
<stop stop-color="#999999"/>
<stop offset="1" stop-color="white"/>
</linearGradient>
<linearGradient id="paint4_linear_2071_6576" x1="-61.7155" y1="51.4937" x2="-6.98629" y2="174.039" gradientUnits="userSpaceOnUse">
<stop stop-color="#999999"/>
<stop offset="1" stop-color="white"/>
</linearGradient>
<linearGradient id="paint5_linear_2071_6576" x1="859.478" y1="873.121" x2="808.539" y2="625.19" gradientUnits="userSpaceOnUse">
<stop stop-color="#999999"/>
<stop offset="1" stop-color="white"/>
</linearGradient>
<linearGradient id="paint6_linear_2071_6576" x1="970.785" y1="836.836" x2="867.007" y2="512.906" gradientUnits="userSpaceOnUse">
<stop stop-color="#999999"/>
<stop offset="1" stop-color="white"/>
</linearGradient>
<linearGradient id="paint7_linear_2071_6576" x1="1161.84" y1="695.741" x2="1034.26" y2="421.604" gradientUnits="userSpaceOnUse">
<stop stop-color="#999999"/>
<stop offset="1" stop-color="white"/>
</linearGradient>
<linearGradient id="paint8_linear_2071_6576" x1="1154.44" y1="701.265" x2="1121.19" y2="402.892" gradientUnits="userSpaceOnUse">
<stop stop-color="#999999"/>
<stop offset="1" stop-color="white"/>
</linearGradient>
<linearGradient id="paint9_linear_2071_6576" x1="1239.07" y1="687.377" x2="1175.89" y2="559.3" gradientUnits="userSpaceOnUse">
<stop stop-color="#999999"/>
<stop offset="1" stop-color="white"/>
</linearGradient>
</defs>
</svg>
