<svg width="468" height="548" viewBox="0 0 468 548" fill="none" xmlns="http://www.w3.org/2000/svg">
<path d="M153 94V131.819C153 140.655 160.163 147.819 169 147.819H336C344.837 147.819 352 154.982 352 163.819V193" stroke="#3CB371" stroke-width="2" stroke-linecap="round" stroke-dasharray="8 8"/>
<path d="M268 242V270.223C268 279.06 260.837 286.223 252 286.223H114C105.163 286.223 98 293.386 98 302.223V327" stroke="#3CB371" stroke-width="2" stroke-linecap="round" stroke-dasharray="8 8"/>
<path d="M213 363V391.5C213 400.337 220.163 407.5 229 407.5H351C359.837 407.5 367 414.663 367 423.5V437" stroke="#3CB371" stroke-width="2" stroke-linecap="round" stroke-dasharray="8 8"/>
<rect x="53.5" y="60.5" width="214" height="47" rx="9.5" fill="#252525" stroke="#454545"/>
<rect x="213" y="193" width="200" height="48" rx="10" fill="#3CB371"/>
<rect x="53.5" y="315.5" width="215" height="47" rx="9.5" fill="#252525" stroke="#454545"/>
<rect x="239" y="437" width="178" height="48" rx="10" fill="#3CB371"/>
<path d="M77.16 345.192C76.0293 345.192 75.0587 344.952 74.248 344.472C73.4373 343.981 72.8133 343.304 72.376 342.44C71.9387 341.565 71.72 340.557 71.72 339.416C71.72 338.275 71.9387 337.267 72.376 336.392C72.8133 335.517 73.4373 334.835 74.248 334.344C75.0587 333.853 76.0293 333.608 77.16 333.608C78.504 333.608 79.6027 333.944 80.456 334.616C81.32 335.277 81.8587 336.211 82.072 337.416H79.816C79.6773 336.808 79.3787 336.333 78.92 335.992C78.472 335.64 77.8747 335.464 77.128 335.464C76.0933 335.464 75.2827 335.816 74.696 336.52C74.1093 337.224 73.816 338.189 73.816 339.416C73.816 340.643 74.1093 341.608 74.696 342.312C75.2827 343.005 76.0933 343.352 77.128 343.352C77.8747 343.352 78.472 343.192 78.92 342.872C79.3787 342.541 79.6773 342.088 79.816 341.512H82.072C81.8587 342.664 81.32 343.565 80.456 344.216C79.6027 344.867 78.504 345.192 77.16 345.192ZM87.3249 345.192C86.5569 345.192 85.8635 345.016 85.2449 344.664C84.6369 344.312 84.1515 343.827 83.7889 343.208C83.4369 342.579 83.2609 341.853 83.2609 341.032C83.2609 340.211 83.4422 339.491 83.8049 338.872C84.1675 338.243 84.6529 337.752 85.2609 337.4C85.8795 337.048 86.5729 336.872 87.3409 336.872C88.0982 336.872 88.7809 337.048 89.3889 337.4C90.0075 337.752 90.4929 338.243 90.8449 338.872C91.2075 339.491 91.3889 340.211 91.3889 341.032C91.3889 341.853 91.2075 342.579 90.8449 343.208C90.4929 343.827 90.0075 344.312 89.3889 344.664C88.7702 345.016 88.0822 345.192 87.3249 345.192ZM87.3249 343.416C87.8582 343.416 88.3222 343.219 88.7169 342.824C89.1115 342.419 89.3089 341.821 89.3089 341.032C89.3089 340.243 89.1115 339.651 88.7169 339.256C88.3222 338.851 87.8635 338.648 87.3409 338.648C86.7969 338.648 86.3275 338.851 85.9329 339.256C85.5489 339.651 85.3569 340.243 85.3569 341.032C85.3569 341.821 85.5489 342.419 85.9329 342.824C86.3275 343.219 86.7915 343.416 87.3249 343.416ZM92.9 348.52V337.064H94.724L94.948 338.2C95.204 337.848 95.54 337.539 95.956 337.272C96.3827 337.005 96.932 336.872 97.604 336.872C98.3507 336.872 99.0173 337.053 99.604 337.416C100.191 337.779 100.655 338.275 100.996 338.904C101.337 339.533 101.508 340.248 101.508 341.048C101.508 341.848 101.337 342.563 100.996 343.192C100.655 343.811 100.191 344.301 99.604 344.664C99.0173 345.016 98.3507 345.192 97.604 345.192C97.0067 345.192 96.484 345.08 96.036 344.856C95.588 344.632 95.2253 344.317 94.948 343.912V348.52H92.9ZM97.172 343.4C97.8227 343.4 98.3613 343.181 98.788 342.744C99.2147 342.307 99.428 341.741 99.428 341.048C99.428 340.355 99.2147 339.784 98.788 339.336C98.3613 338.888 97.8227 338.664 97.172 338.664C96.5107 338.664 95.9667 338.888 95.54 339.336C95.124 339.773 94.916 340.339 94.916 341.032C94.916 341.725 95.124 342.296 95.54 342.744C95.9667 343.181 96.5107 343.4 97.172 343.4ZM103.291 348.52L105.131 344.472H104.651L101.563 337.064H103.787L106.011 342.648L108.331 337.064H110.507L105.467 348.52H103.291ZM113.078 345L110.758 337.064H112.79L114.166 342.776L115.766 337.064H118.038L119.638 342.776L121.03 337.064H123.062L120.726 345H118.598L116.902 339.064L115.206 345H113.078ZM124.034 345V337.064H125.858L126.05 338.552C126.338 338.04 126.727 337.635 127.218 337.336C127.719 337.027 128.306 336.872 128.978 336.872V339.032H128.402C127.954 339.032 127.554 339.101 127.202 339.24C126.85 339.379 126.572 339.619 126.37 339.96C126.178 340.301 126.082 340.776 126.082 341.384V345H124.034ZM131.162 335.832C130.788 335.832 130.479 335.72 130.234 335.496C129.999 335.272 129.882 334.989 129.882 334.648C129.882 334.307 129.999 334.029 130.234 333.816C130.479 333.592 130.788 333.48 131.162 333.48C131.535 333.48 131.839 333.592 132.074 333.816C132.319 334.029 132.442 334.307 132.442 334.648C132.442 334.989 132.319 335.272 132.074 335.496C131.839 335.72 131.535 335.832 131.162 335.832ZM130.138 345V337.064H132.186V345H130.138ZM137.539 345C136.707 345 136.04 344.797 135.539 344.392C135.038 343.987 134.787 343.267 134.787 342.232V338.776H133.427V337.064H134.787L135.027 334.936H136.835V337.064H138.979V338.776H136.835V342.248C136.835 342.632 136.915 342.899 137.075 343.048C137.246 343.187 137.534 343.256 137.939 343.256H138.931V345H137.539ZM141.522 335.832C141.148 335.832 140.839 335.72 140.594 335.496C140.359 335.272 140.242 334.989 140.242 334.648C140.242 334.307 140.359 334.029 140.594 333.816C140.839 333.592 141.148 333.48 141.522 333.48C141.895 333.48 142.199 333.592 142.434 333.816C142.679 334.029 142.802 334.307 142.802 334.648C142.802 334.989 142.679 335.272 142.434 335.496C142.199 335.72 141.895 335.832 141.522 335.832ZM140.498 345V337.064H142.546V345H140.498ZM144.363 345V337.064H146.171L146.331 338.408C146.576 337.939 146.928 337.565 147.387 337.288C147.856 337.011 148.406 336.872 149.035 336.872C150.016 336.872 150.779 337.181 151.323 337.8C151.867 338.419 152.139 339.325 152.139 340.52V345H150.091V340.712C150.091 340.029 149.952 339.507 149.675 339.144C149.398 338.781 148.966 338.6 148.379 338.6C147.803 338.6 147.328 338.803 146.955 339.208C146.592 339.613 146.411 340.179 146.411 340.904V345H144.363ZM157.138 342.632C156.754 342.632 156.396 342.589 156.066 342.504L155.474 343.096C155.655 343.192 155.9 343.272 156.21 343.336C156.519 343.4 157.02 343.464 157.714 343.528C158.77 343.624 159.538 343.875 160.018 344.28C160.498 344.685 160.738 345.245 160.738 345.96C160.738 346.429 160.61 346.872 160.354 347.288C160.098 347.715 159.703 348.056 159.17 348.312C158.636 348.579 157.954 348.712 157.122 348.712C155.991 348.712 155.079 348.499 154.386 348.072C153.692 347.656 153.346 347.027 153.346 346.184C153.346 345.469 153.692 344.851 154.386 344.328C154.172 344.232 153.986 344.131 153.826 344.024C153.676 343.917 153.543 343.805 153.426 343.688V343.32L154.818 341.848C154.199 341.304 153.89 340.605 153.89 339.752C153.89 339.219 154.018 338.733 154.274 338.296C154.54 337.859 154.914 337.512 155.394 337.256C155.874 337 156.455 336.872 157.138 336.872C157.586 336.872 158.002 336.936 158.386 337.064H161.394V338.312L160.034 338.408C160.247 338.813 160.354 339.261 160.354 339.752C160.354 340.285 160.226 340.771 159.97 341.208C159.714 341.645 159.34 341.992 158.85 342.248C158.37 342.504 157.799 342.632 157.138 342.632ZM157.138 341.064C157.554 341.064 157.895 340.952 158.162 340.728C158.439 340.504 158.578 340.184 158.578 339.768C158.578 339.352 158.439 339.032 158.162 338.808C157.895 338.584 157.554 338.472 157.138 338.472C156.7 338.472 156.348 338.584 156.082 338.808C155.815 339.032 155.682 339.352 155.682 339.768C155.682 340.184 155.815 340.504 156.082 340.728C156.348 340.952 156.7 341.064 157.138 341.064ZM155.218 345.976C155.218 346.371 155.399 346.664 155.762 346.856C156.135 347.059 156.588 347.16 157.122 347.16C157.634 347.16 158.05 347.053 158.37 346.84C158.69 346.637 158.85 346.36 158.85 346.008C158.85 345.72 158.743 345.48 158.53 345.288C158.327 345.096 157.916 344.979 157.298 344.936C156.86 344.904 156.455 344.856 156.082 344.792C155.772 344.963 155.548 345.149 155.41 345.352C155.282 345.555 155.218 345.763 155.218 345.976ZM169.691 345.176C168.87 345.176 168.155 345.037 167.547 344.76C166.939 344.472 166.465 344.072 166.123 343.56C165.793 343.048 165.627 342.451 165.627 341.768C165.627 341.043 165.83 340.387 166.235 339.8C166.641 339.213 167.243 338.744 168.043 338.392C167.723 338.019 167.494 337.667 167.355 337.336C167.217 337.005 167.147 336.653 167.147 336.28C167.147 335.768 167.275 335.315 167.531 334.92C167.787 334.515 168.15 334.195 168.619 333.96C169.099 333.725 169.67 333.608 170.331 333.608C171.003 333.608 171.574 333.731 172.043 333.976C172.513 334.221 172.865 334.552 173.099 334.968C173.345 335.384 173.457 335.848 173.435 336.36H171.483C171.483 335.965 171.366 335.672 171.131 335.48C170.907 335.277 170.635 335.176 170.315 335.176C169.953 335.176 169.659 335.277 169.435 335.48C169.222 335.683 169.115 335.944 169.115 336.264C169.115 336.531 169.201 336.803 169.371 337.08C169.542 337.357 169.793 337.677 170.123 338.04L173.259 341.144C173.483 340.781 173.718 340.36 173.963 339.88L174.315 339.176H176.411L175.851 340.264C175.425 341.128 174.998 341.859 174.571 342.456L177.147 345H174.699L173.451 343.752C172.907 344.253 172.326 344.616 171.707 344.84C171.099 345.064 170.427 345.176 169.691 345.176ZM167.611 341.64C167.611 342.163 167.803 342.605 168.187 342.968C168.582 343.32 169.105 343.496 169.755 343.496C170.683 343.496 171.489 343.165 172.171 342.504L169.211 339.576C168.667 339.811 168.262 340.104 167.995 340.456C167.739 340.808 167.611 341.203 167.611 341.64ZM181.639 345V333.8H185.751C186.647 333.8 187.383 333.955 187.959 334.264C188.546 334.563 188.983 334.973 189.271 335.496C189.559 336.008 189.703 336.579 189.703 337.208C189.703 337.891 189.522 338.515 189.159 339.08C188.807 339.645 188.253 340.056 187.495 340.312L189.815 345H187.463L185.383 340.584H183.687V345H181.639ZM183.687 339.08H185.623C186.306 339.08 186.807 338.915 187.127 338.584C187.447 338.253 187.607 337.816 187.607 337.272C187.607 336.739 187.447 336.312 187.127 335.992C186.818 335.672 186.311 335.512 185.607 335.512H183.687V339.08ZM194.612 345.192C193.812 345.192 193.102 345.021 192.484 344.68C191.865 344.339 191.38 343.859 191.028 343.24C190.676 342.621 190.5 341.907 190.5 341.096C190.5 340.275 190.67 339.544 191.012 338.904C191.364 338.264 191.844 337.768 192.452 337.416C193.07 337.053 193.796 336.872 194.628 336.872C195.406 336.872 196.094 337.043 196.692 337.384C197.289 337.725 197.753 338.195 198.084 338.792C198.425 339.379 198.596 340.035 198.596 340.76C198.596 340.877 198.59 341 198.58 341.128C198.58 341.256 198.574 341.389 198.564 341.528H192.532C192.574 342.147 192.788 342.632 193.172 342.984C193.566 343.336 194.041 343.512 194.596 343.512C195.012 343.512 195.358 343.421 195.636 343.24C195.924 343.048 196.137 342.803 196.276 342.504H198.356C198.206 343.005 197.956 343.464 197.604 343.88C197.262 344.285 196.836 344.605 196.324 344.84C195.822 345.075 195.252 345.192 194.612 345.192ZM194.628 338.536C194.126 338.536 193.684 338.68 193.3 338.968C192.916 339.245 192.67 339.672 192.564 340.248H196.516C196.484 339.725 196.292 339.309 195.94 339C195.588 338.691 195.15 338.536 194.628 338.536ZM201.83 345L198.918 337.064H201.062L203.078 343.064L205.094 337.064H207.238L204.31 345H201.83ZM209.313 335.832C208.94 335.832 208.631 335.72 208.385 335.496C208.151 335.272 208.033 334.989 208.033 334.648C208.033 334.307 208.151 334.029 208.385 333.816C208.631 333.592 208.94 333.48 209.313 333.48C209.687 333.48 209.991 333.592 210.225 333.816C210.471 334.029 210.593 334.307 210.593 334.648C210.593 334.989 210.471 335.272 210.225 335.496C209.991 335.72 209.687 335.832 209.313 335.832ZM208.289 345V337.064H210.337V345H208.289ZM215.435 345.192C214.731 345.192 214.112 345.08 213.579 344.856C213.046 344.621 212.619 344.301 212.299 343.896C211.979 343.491 211.787 343.021 211.723 342.488H213.787C213.851 342.797 214.022 343.064 214.299 343.288C214.587 343.501 214.955 343.608 215.403 343.608C215.851 343.608 216.176 343.517 216.379 343.336C216.592 343.155 216.699 342.947 216.699 342.712C216.699 342.371 216.55 342.141 216.251 342.024C215.952 341.896 215.536 341.773 215.003 341.656C214.662 341.581 214.315 341.491 213.963 341.384C213.611 341.277 213.286 341.144 212.987 340.984C212.699 340.813 212.464 340.6 212.283 340.344C212.102 340.077 212.011 339.752 212.011 339.368C212.011 338.664 212.288 338.072 212.843 337.592C213.408 337.112 214.198 336.872 215.211 336.872C216.15 336.872 216.896 337.091 217.451 337.528C218.016 337.965 218.352 338.568 218.459 339.336H216.523C216.406 338.749 215.963 338.456 215.195 338.456C214.811 338.456 214.512 338.531 214.299 338.68C214.096 338.829 213.995 339.016 213.995 339.24C213.995 339.475 214.15 339.661 214.459 339.8C214.768 339.939 215.179 340.067 215.691 340.184C216.246 340.312 216.752 340.456 217.211 340.616C217.68 340.765 218.054 340.995 218.331 341.304C218.608 341.603 218.747 342.035 218.747 342.6C218.758 343.091 218.63 343.533 218.363 343.928C218.096 344.323 217.712 344.632 217.211 344.856C216.71 345.08 216.118 345.192 215.435 345.192ZM221.345 335.832C220.972 335.832 220.663 335.72 220.417 335.496C220.183 335.272 220.065 334.989 220.065 334.648C220.065 334.307 220.183 334.029 220.417 333.816C220.663 333.592 220.972 333.48 221.345 333.48C221.719 333.48 222.023 333.592 222.257 333.816C222.503 334.029 222.625 334.307 222.625 334.648C222.625 334.989 222.503 335.272 222.257 335.496C222.023 335.72 221.719 335.832 221.345 335.832ZM220.321 345V337.064H222.369V345H220.321ZM227.995 345.192C227.227 345.192 226.534 345.016 225.915 344.664C225.307 344.312 224.822 343.827 224.459 343.208C224.107 342.579 223.931 341.853 223.931 341.032C223.931 340.211 224.112 339.491 224.475 338.872C224.838 338.243 225.323 337.752 225.931 337.4C226.55 337.048 227.243 336.872 228.011 336.872C228.768 336.872 229.451 337.048 230.059 337.4C230.678 337.752 231.163 338.243 231.515 338.872C231.878 339.491 232.059 340.211 232.059 341.032C232.059 341.853 231.878 342.579 231.515 343.208C231.163 343.827 230.678 344.312 230.059 344.664C229.44 345.016 228.752 345.192 227.995 345.192ZM227.995 343.416C228.528 343.416 228.992 343.219 229.387 342.824C229.782 342.419 229.979 341.821 229.979 341.032C229.979 340.243 229.782 339.651 229.387 339.256C228.992 338.851 228.534 338.648 228.011 338.648C227.467 338.648 226.998 338.851 226.603 339.256C226.219 339.651 226.027 340.243 226.027 341.032C226.027 341.821 226.219 342.419 226.603 342.824C226.998 343.219 227.462 343.416 227.995 343.416ZM233.57 345V337.064H235.378L235.538 338.408C235.783 337.939 236.135 337.565 236.594 337.288C237.063 337.011 237.613 336.872 238.242 336.872C239.223 336.872 239.986 337.181 240.53 337.8C241.074 338.419 241.346 339.325 241.346 340.52V345H239.298V340.712C239.298 340.029 239.159 339.507 238.882 339.144C238.605 338.781 238.173 338.6 237.586 338.6C237.01 338.6 236.535 338.803 236.162 339.208C235.799 339.613 235.618 340.179 235.618 340.904V345H233.57ZM246.264 345.192C245.56 345.192 244.942 345.08 244.408 344.856C243.875 344.621 243.448 344.301 243.128 343.896C242.808 343.491 242.616 343.021 242.552 342.488H244.616C244.68 342.797 244.851 343.064 245.128 343.288C245.416 343.501 245.784 343.608 246.232 343.608C246.68 343.608 247.006 343.517 247.208 343.336C247.422 343.155 247.528 342.947 247.528 342.712C247.528 342.371 247.379 342.141 247.08 342.024C246.782 341.896 246.366 341.773 245.832 341.656C245.491 341.581 245.144 341.491 244.792 341.384C244.44 341.277 244.115 341.144 243.816 340.984C243.528 340.813 243.294 340.6 243.112 340.344C242.931 340.077 242.84 339.752 242.84 339.368C242.84 338.664 243.118 338.072 243.672 337.592C244.238 337.112 245.027 336.872 246.04 336.872C246.979 336.872 247.726 337.091 248.28 337.528C248.846 337.965 249.182 338.568 249.288 339.336H247.352C247.235 338.749 246.792 338.456 246.024 338.456C245.64 338.456 245.342 338.531 245.128 338.68C244.926 338.829 244.824 339.016 244.824 339.24C244.824 339.475 244.979 339.661 245.288 339.8C245.598 339.939 246.008 340.067 246.52 340.184C247.075 340.312 247.582 340.456 248.04 340.616C248.51 340.765 248.883 340.995 249.16 341.304C249.438 341.603 249.576 342.035 249.576 342.6C249.587 343.091 249.459 343.533 249.192 343.928C248.926 344.323 248.542 344.632 248.04 344.856C247.539 345.08 246.947 345.192 246.264 345.192Z" fill="white"/>
<path d="M269.088 466V454.8H272.912C274.224 454.8 275.301 455.035 276.144 455.504C276.997 455.963 277.627 456.613 278.032 457.456C278.448 458.288 278.656 459.269 278.656 460.4C278.656 461.531 278.448 462.517 278.032 463.36C277.627 464.192 276.997 464.843 276.144 465.312C275.301 465.771 274.224 466 272.912 466H269.088ZM271.136 464.24H272.816C273.755 464.24 274.496 464.091 275.04 463.792C275.584 463.483 275.973 463.045 276.208 462.48C276.443 461.904 276.56 461.211 276.56 460.4C276.56 459.6 276.443 458.912 276.208 458.336C275.973 457.76 275.584 457.317 275.04 457.008C274.496 456.699 273.755 456.544 272.816 456.544H271.136V464.24ZM283.951 466.192C283.151 466.192 282.442 466.021 281.823 465.68C281.204 465.339 280.719 464.859 280.367 464.24C280.015 463.621 279.839 462.907 279.839 462.096C279.839 461.275 280.01 460.544 280.351 459.904C280.703 459.264 281.183 458.768 281.791 458.416C282.41 458.053 283.135 457.872 283.967 457.872C284.746 457.872 285.434 458.043 286.031 458.384C286.628 458.725 287.092 459.195 287.423 459.792C287.764 460.379 287.935 461.035 287.935 461.76C287.935 461.877 287.93 462 287.919 462.128C287.919 462.256 287.914 462.389 287.903 462.528H281.871C281.914 463.147 282.127 463.632 282.511 463.984C282.906 464.336 283.38 464.512 283.935 464.512C284.351 464.512 284.698 464.421 284.975 464.24C285.263 464.048 285.476 463.803 285.615 463.504H287.695C287.546 464.005 287.295 464.464 286.943 464.88C286.602 465.285 286.175 465.605 285.663 465.84C285.162 466.075 284.591 466.192 283.951 466.192ZM283.967 459.536C283.466 459.536 283.023 459.68 282.639 459.968C282.255 460.245 282.01 460.672 281.903 461.248H285.855C285.823 460.725 285.631 460.309 285.279 460C284.927 459.691 284.49 459.536 283.967 459.536ZM291.169 466L288.257 458.064H290.401L292.417 464.064L294.433 458.064H296.577L293.649 466H291.169ZM301.014 466.192C300.214 466.192 299.505 466.021 298.886 465.68C298.267 465.339 297.782 464.859 297.43 464.24C297.078 463.621 296.902 462.907 296.902 462.096C296.902 461.275 297.073 460.544 297.414 459.904C297.766 459.264 298.246 458.768 298.854 458.416C299.473 458.053 300.198 457.872 301.03 457.872C301.809 457.872 302.497 458.043 303.094 458.384C303.691 458.725 304.155 459.195 304.486 459.792C304.827 460.379 304.998 461.035 304.998 461.76C304.998 461.877 304.993 462 304.982 462.128C304.982 462.256 304.977 462.389 304.966 462.528H298.934C298.977 463.147 299.19 463.632 299.574 463.984C299.969 464.336 300.443 464.512 300.998 464.512C301.414 464.512 301.761 464.421 302.038 464.24C302.326 464.048 302.539 463.803 302.678 463.504H304.758C304.609 464.005 304.358 464.464 304.006 464.88C303.665 465.285 303.238 465.605 302.726 465.84C302.225 466.075 301.654 466.192 301.014 466.192ZM301.03 459.536C300.529 459.536 300.086 459.68 299.702 459.968C299.318 460.245 299.073 460.672 298.966 461.248H302.918C302.886 460.725 302.694 460.309 302.342 460C301.99 459.691 301.553 459.536 301.03 459.536ZM306.401 466V454.48H308.449V466H306.401ZM314.029 466.192C313.261 466.192 312.568 466.016 311.949 465.664C311.341 465.312 310.856 464.827 310.493 464.208C310.141 463.579 309.965 462.853 309.965 462.032C309.965 461.211 310.147 460.491 310.509 459.872C310.872 459.243 311.357 458.752 311.965 458.4C312.584 458.048 313.277 457.872 314.045 457.872C314.803 457.872 315.485 458.048 316.093 458.4C316.712 458.752 317.197 459.243 317.549 459.872C317.912 460.491 318.093 461.211 318.093 462.032C318.093 462.853 317.912 463.579 317.549 464.208C317.197 464.827 316.712 465.312 316.093 465.664C315.475 466.016 314.787 466.192 314.029 466.192ZM314.029 464.416C314.563 464.416 315.027 464.219 315.421 463.824C315.816 463.419 316.013 462.821 316.013 462.032C316.013 461.243 315.816 460.651 315.421 460.256C315.027 459.851 314.568 459.648 314.045 459.648C313.501 459.648 313.032 459.851 312.637 460.256C312.253 460.651 312.061 461.243 312.061 462.032C312.061 462.821 312.253 463.419 312.637 463.824C313.032 464.219 313.496 464.416 314.029 464.416ZM319.604 469.52V458.064H321.428L321.652 459.2C321.908 458.848 322.244 458.539 322.66 458.272C323.087 458.005 323.636 457.872 324.308 457.872C325.055 457.872 325.722 458.053 326.308 458.416C326.895 458.779 327.359 459.275 327.7 459.904C328.042 460.533 328.212 461.248 328.212 462.048C328.212 462.848 328.042 463.563 327.7 464.192C327.359 464.811 326.895 465.301 326.308 465.664C325.722 466.016 325.055 466.192 324.308 466.192C323.711 466.192 323.188 466.08 322.74 465.856C322.292 465.632 321.93 465.317 321.652 464.912V469.52H319.604ZM323.876 464.4C324.527 464.4 325.066 464.181 325.492 463.744C325.919 463.307 326.132 462.741 326.132 462.048C326.132 461.355 325.919 460.784 325.492 460.336C325.066 459.888 324.527 459.664 323.876 459.664C323.215 459.664 322.671 459.888 322.244 460.336C321.828 460.773 321.62 461.339 321.62 462.032C321.62 462.725 321.828 463.296 322.244 463.744C322.671 464.181 323.215 464.4 323.876 464.4ZM329.722 466V458.064H331.53L331.706 459.136C331.962 458.752 332.298 458.448 332.714 458.224C333.141 457.989 333.631 457.872 334.186 457.872C335.413 457.872 336.282 458.347 336.794 459.296C337.082 458.859 337.466 458.512 337.946 458.256C338.437 458 338.97 457.872 339.546 457.872C340.581 457.872 341.375 458.181 341.93 458.8C342.485 459.419 342.762 460.325 342.762 461.52V466H340.714V461.712C340.714 461.029 340.581 460.507 340.314 460.144C340.058 459.781 339.658 459.6 339.114 459.6C338.559 459.6 338.111 459.803 337.77 460.208C337.439 460.613 337.274 461.179 337.274 461.904V466H335.226V461.712C335.226 461.029 335.093 460.507 334.826 460.144C334.559 459.781 334.149 459.6 333.594 459.6C333.05 459.6 332.607 459.803 332.266 460.208C331.935 460.613 331.77 461.179 331.77 461.904V466H329.722ZM348.242 466.192C347.442 466.192 346.733 466.021 346.114 465.68C345.496 465.339 345.01 464.859 344.658 464.24C344.306 463.621 344.13 462.907 344.13 462.096C344.13 461.275 344.301 460.544 344.642 459.904C344.994 459.264 345.474 458.768 346.082 458.416C346.701 458.053 347.426 457.872 348.258 457.872C349.037 457.872 349.725 458.043 350.322 458.384C350.92 458.725 351.384 459.195 351.714 459.792C352.056 460.379 352.226 461.035 352.226 461.76C352.226 461.877 352.221 462 352.21 462.128C352.21 462.256 352.205 462.389 352.194 462.528H346.162C346.205 463.147 346.418 463.632 346.802 463.984C347.197 464.336 347.672 464.512 348.226 464.512C348.642 464.512 348.989 464.421 349.266 464.24C349.554 464.048 349.768 463.803 349.906 463.504H351.986C351.837 464.005 351.586 464.464 351.234 464.88C350.893 465.285 350.466 465.605 349.954 465.84C349.453 466.075 348.882 466.192 348.242 466.192ZM348.258 459.536C347.757 459.536 347.314 459.68 346.93 459.968C346.546 460.245 346.301 460.672 346.194 461.248H350.146C350.114 460.725 349.922 460.309 349.57 460C349.218 459.691 348.781 459.536 348.258 459.536ZM353.629 466V458.064H355.437L355.597 459.408C355.842 458.939 356.194 458.565 356.653 458.288C357.122 458.011 357.671 457.872 358.301 457.872C359.282 457.872 360.045 458.181 360.589 458.8C361.133 459.419 361.405 460.325 361.405 461.52V466H359.357V461.712C359.357 461.029 359.218 460.507 358.941 460.144C358.663 459.781 358.231 459.6 357.645 459.6C357.069 459.6 356.594 459.803 356.221 460.208C355.858 460.613 355.677 461.179 355.677 461.904V466H353.629ZM366.579 466C365.747 466 365.08 465.797 364.579 465.392C364.078 464.987 363.827 464.267 363.827 463.232V459.776H362.467V458.064H363.827L364.067 455.936H365.875V458.064H368.019V459.776H365.875V463.248C365.875 463.632 365.955 463.899 366.115 464.048C366.286 464.187 366.574 464.256 366.979 464.256H367.971V466H366.579Z" fill="black"/>
<path d="M381.5 460C380.948 460 380.5 460.448 380.5 461C380.5 461.552 380.948 462 381.5 462V460ZM398.207 461.707C398.598 461.317 398.598 460.683 398.207 460.293L391.843 453.929C391.453 453.538 390.819 453.538 390.429 453.929C390.038 454.319 390.038 454.953 390.429 455.343L396.086 461L390.429 466.657C390.038 467.047 390.038 467.681 390.429 468.071C390.819 468.462 391.453 468.462 391.843 468.071L398.207 461.707ZM381.5 462H397.5V460H381.5V462Z" fill="black"/>
<path d="M76.136 90V78.8H77.832V88.656H82.92V90H76.136ZM87.7296 90.192C86.9723 90.192 86.2896 90.0213 85.6816 89.68C85.0843 89.328 84.6096 88.8427 84.2576 88.224C83.9056 87.5947 83.7296 86.864 83.7296 86.032C83.7296 85.2 83.9056 84.4747 84.2576 83.856C84.6203 83.2267 85.1056 82.7413 85.7136 82.4C86.3216 82.048 86.999 81.872 87.7456 81.872C88.503 81.872 89.1803 82.048 89.7776 82.4C90.3856 82.7413 90.8656 83.2267 91.2176 83.856C91.5803 84.4747 91.7616 85.2 91.7616 86.032C91.7616 86.864 91.5803 87.5947 91.2176 88.224C90.8656 88.8427 90.3856 89.328 89.7776 89.68C89.1696 90.0213 88.487 90.192 87.7296 90.192ZM87.7296 88.736C88.135 88.736 88.5083 88.6347 88.8496 88.432C89.2016 88.2293 89.4843 87.9307 89.6976 87.536C89.911 87.1307 90.0176 86.6293 90.0176 86.032C90.0176 85.4347 89.911 84.9387 89.6976 84.544C89.495 84.1387 89.2176 83.8347 88.8656 83.632C88.5243 83.4293 88.151 83.328 87.7456 83.328C87.3403 83.328 86.9616 83.4293 86.6096 83.632C86.2683 83.8347 85.991 84.1387 85.7776 84.544C85.5643 84.9387 85.4576 85.4347 85.4576 86.032C85.4576 86.6293 85.5643 87.1307 85.7776 87.536C85.991 87.9307 86.2683 88.2293 86.6096 88.432C86.951 88.6347 87.3243 88.736 87.7296 88.736ZM94.5629 90L92.2269 82.064H93.9229L95.4589 88.048L97.1869 82.064H99.0749L100.803 88.048L102.339 82.064H104.035L101.699 90H99.9549L98.1309 83.76L96.3069 90H94.5629ZM104.952 86.064V84.64H111.464V86.064H104.952ZM113.169 90V78.8H120.193V80.176H114.865V83.712H119.281V85.072H114.865V90H113.169ZM122.432 80.56C122.112 80.56 121.845 80.464 121.632 80.272C121.429 80.0693 121.328 79.8187 121.328 79.52C121.328 79.2213 121.429 78.976 121.632 78.784C121.845 78.5813 122.112 78.48 122.432 78.48C122.752 78.48 123.013 78.5813 123.216 78.784C123.429 78.976 123.536 79.2213 123.536 79.52C123.536 79.8187 123.429 80.0693 123.216 80.272C123.013 80.464 122.752 80.56 122.432 80.56ZM121.584 90V82.064H123.28V90H121.584ZM128.815 90.192C128.047 90.192 127.37 90.0107 126.783 89.648C126.196 89.2853 125.738 88.7893 125.407 88.16C125.076 87.5307 124.911 86.816 124.911 86.016C124.911 85.216 125.076 84.5067 125.407 83.888C125.738 83.2587 126.196 82.768 126.783 82.416C127.38 82.0533 128.063 81.872 128.831 81.872C129.46 81.872 130.01 81.9947 130.479 82.24C130.959 82.4853 131.332 82.832 131.599 83.28V78.48H133.295V90H131.775L131.599 88.768C131.343 89.1413 130.991 89.472 130.543 89.76C130.095 90.048 129.519 90.192 128.815 90.192ZM129.119 88.72C129.844 88.72 130.436 88.4693 130.895 87.968C131.364 87.4667 131.599 86.8213 131.599 86.032C131.599 85.232 131.364 84.5867 130.895 84.096C130.436 83.5947 129.844 83.344 129.119 83.344C128.394 83.344 127.796 83.5947 127.327 84.096C126.858 84.5867 126.623 85.232 126.623 86.032C126.623 86.5547 126.73 87.0187 126.943 87.424C127.156 87.8293 127.45 88.1493 127.823 88.384C128.207 88.608 128.639 88.72 129.119 88.72ZM138.825 90.192C138.047 90.192 137.353 90.0213 136.745 89.68C136.148 89.328 135.679 88.8427 135.337 88.224C134.996 87.6053 134.825 86.8853 134.825 86.064C134.825 85.232 134.991 84.5013 135.321 83.872C135.663 83.2427 136.132 82.752 136.729 82.4C137.337 82.048 138.041 81.872 138.841 81.872C139.62 81.872 140.297 82.048 140.873 82.4C141.449 82.7413 141.897 83.2 142.217 83.776C142.537 84.352 142.697 84.9867 142.697 85.68C142.697 85.7867 142.692 85.904 142.681 86.032C142.681 86.1493 142.676 86.2827 142.665 86.432H136.489C136.543 87.2 136.793 87.7867 137.241 88.192C137.7 88.5867 138.228 88.784 138.825 88.784C139.305 88.784 139.705 88.6773 140.025 88.464C140.356 88.24 140.601 87.9413 140.761 87.568H142.457C142.244 88.3147 141.817 88.9387 141.177 89.44C140.548 89.9413 139.764 90.192 138.825 90.192ZM138.825 83.264C138.26 83.264 137.759 83.4347 137.321 83.776C136.884 84.1067 136.617 84.608 136.521 85.28H141.001C140.969 84.6613 140.751 84.1707 140.345 83.808C139.94 83.4453 139.433 83.264 138.825 83.264ZM144.137 90V78.48H145.833V90H144.137ZM148.621 80.56C148.301 80.56 148.034 80.464 147.821 80.272C147.618 80.0693 147.517 79.8187 147.517 79.52C147.517 79.2213 147.618 78.976 147.821 78.784C148.034 78.5813 148.301 78.48 148.621 78.48C148.941 78.48 149.202 78.5813 149.405 78.784C149.618 78.976 149.725 79.2213 149.725 79.52C149.725 79.8187 149.618 80.0693 149.405 80.272C149.202 80.464 148.941 80.56 148.621 80.56ZM147.773 90V82.064H149.469V90H147.773ZM154.716 90C153.937 90 153.318 89.8133 152.86 89.44C152.401 89.056 152.172 88.3787 152.172 87.408V83.488H150.812V82.064H152.172L152.38 80.048H153.868V82.064H156.108V83.488H153.868V87.408C153.868 87.8453 153.958 88.1493 154.14 88.32C154.332 88.48 154.657 88.56 155.116 88.56H156.028V90H154.716ZM158.464 93.52L160.368 89.344H159.904L156.768 82.064H158.608L161.04 87.936L163.584 82.064H165.376L160.256 93.52H158.464ZM172.514 90.016L169.49 78.8H171.314L173.538 88.08L176.098 78.8H177.97L180.45 88.08L182.674 78.8H184.498L181.426 90H179.442L176.994 81.216L174.466 90L172.514 90.016ZM186.63 80.56C186.31 80.56 186.043 80.464 185.83 80.272C185.627 80.0693 185.526 79.8187 185.526 79.52C185.526 79.2213 185.627 78.976 185.83 78.784C186.043 78.5813 186.31 78.48 186.63 78.48C186.95 78.48 187.211 78.5813 187.414 78.784C187.627 78.976 187.734 79.2213 187.734 79.52C187.734 79.8187 187.627 80.0693 187.414 80.272C187.211 80.464 186.95 80.56 186.63 80.56ZM185.782 90V82.064H187.478V90H185.782ZM189.397 90V82.064H190.917L191.061 83.568C191.338 83.0453 191.722 82.6347 192.213 82.336C192.714 82.0267 193.317 81.872 194.021 81.872V83.648H193.557C193.088 83.648 192.666 83.728 192.293 83.888C191.93 84.0373 191.637 84.2987 191.413 84.672C191.2 85.0347 191.093 85.5413 191.093 86.192V90H189.397ZM198.648 90.192C197.87 90.192 197.176 90.0213 196.568 89.68C195.971 89.328 195.502 88.8427 195.16 88.224C194.819 87.6053 194.648 86.8853 194.648 86.064C194.648 85.232 194.814 84.5013 195.144 83.872C195.486 83.2427 195.955 82.752 196.552 82.4C197.16 82.048 197.864 81.872 198.664 81.872C199.443 81.872 200.12 82.048 200.696 82.4C201.272 82.7413 201.72 83.2 202.04 83.776C202.36 84.352 202.52 84.9867 202.52 85.68C202.52 85.7867 202.515 85.904 202.504 86.032C202.504 86.1493 202.499 86.2827 202.488 86.432H196.312C196.366 87.2 196.616 87.7867 197.064 88.192C197.523 88.5867 198.051 88.784 198.648 88.784C199.128 88.784 199.528 88.6773 199.848 88.464C200.179 88.24 200.424 87.9413 200.584 87.568H202.28C202.067 88.3147 201.64 88.9387 201 89.44C200.371 89.9413 199.587 90.192 198.648 90.192ZM198.648 83.264C198.083 83.264 197.582 83.4347 197.144 83.776C196.707 84.1067 196.44 84.608 196.344 85.28H200.824C200.792 84.6613 200.574 84.1707 200.168 83.808C199.763 83.4453 199.256 83.264 198.648 83.264ZM204.36 90V83.488H203.224V82.064H204.36V80.912C204.36 80.048 204.573 79.4293 205 79.056C205.437 78.672 206.051 78.48 206.84 78.48H207.672V79.92H207.096C206.723 79.92 206.456 80 206.296 80.16C206.136 80.3093 206.056 80.5653 206.056 80.928V82.064H207.88V83.488H206.056V90H204.36ZM209.171 90V82.064H210.691L210.835 83.568C211.113 83.0453 211.497 82.6347 211.987 82.336C212.489 82.0267 213.091 81.872 213.795 81.872V83.648H213.331C212.862 83.648 212.441 83.728 212.067 83.888C211.705 84.0373 211.411 84.2987 211.187 84.672C210.974 85.0347 210.867 85.5413 210.867 86.192V90H209.171ZM217.617 90.192C216.945 90.192 216.391 90.08 215.953 89.856C215.516 89.632 215.191 89.3387 214.977 88.976C214.764 88.6027 214.657 88.1973 214.657 87.76C214.657 86.992 214.956 86.384 215.553 85.936C216.151 85.488 217.004 85.264 218.113 85.264H220.193V85.12C220.193 84.5013 220.023 84.0373 219.681 83.728C219.351 83.4187 218.919 83.264 218.385 83.264C217.916 83.264 217.505 83.3813 217.153 83.616C216.812 83.84 216.604 84.176 216.529 84.624H214.833C214.887 84.048 215.079 83.5573 215.409 83.152C215.751 82.736 216.177 82.4213 216.689 82.208C217.212 81.984 217.783 81.872 218.401 81.872C219.511 81.872 220.369 82.1653 220.977 82.752C221.585 83.328 221.889 84.1173 221.889 85.12V90H220.417L220.273 88.64C220.049 89.0773 219.724 89.4453 219.297 89.744C218.871 90.0427 218.311 90.192 217.617 90.192ZM217.953 88.816C218.412 88.816 218.796 88.7093 219.105 88.496C219.425 88.272 219.671 87.9787 219.841 87.616C220.023 87.2533 220.135 86.8533 220.177 86.416H218.289C217.617 86.416 217.137 86.5333 216.849 86.768C216.572 87.0027 216.433 87.296 216.433 87.648C216.433 88.0107 216.567 88.2987 216.833 88.512C217.111 88.7147 217.484 88.816 217.953 88.816ZM223.547 90V82.064H225.051L225.195 83.184C225.451 82.7787 225.787 82.4587 226.203 82.224C226.63 81.9893 227.12 81.872 227.675 81.872C228.934 81.872 229.808 82.368 230.299 83.36C230.587 82.9013 230.971 82.5387 231.451 82.272C231.942 82.0053 232.47 81.872 233.035 81.872C234.027 81.872 234.806 82.1707 235.371 82.768C235.936 83.3653 236.219 84.256 236.219 85.44V90H234.523V85.616C234.523 84.08 233.936 83.312 232.763 83.312C232.166 83.312 231.675 83.536 231.291 83.984C230.918 84.432 230.731 85.072 230.731 85.904V90H229.035V85.616C229.035 84.08 228.443 83.312 227.259 83.312C226.672 83.312 226.187 83.536 225.803 83.984C225.43 84.432 225.243 85.072 225.243 85.904V90H223.547ZM241.595 90.192C240.817 90.192 240.123 90.0213 239.515 89.68C238.918 89.328 238.449 88.8427 238.107 88.224C237.766 87.6053 237.595 86.8853 237.595 86.064C237.595 85.232 237.761 84.5013 238.091 83.872C238.433 83.2427 238.902 82.752 239.499 82.4C240.107 82.048 240.811 81.872 241.611 81.872C242.39 81.872 243.067 82.048 243.643 82.4C244.219 82.7413 244.667 83.2 244.987 83.776C245.307 84.352 245.467 84.9867 245.467 85.68C245.467 85.7867 245.462 85.904 245.451 86.032C245.451 86.1493 245.446 86.2827 245.435 86.432H239.259C239.313 87.2 239.563 87.7867 240.011 88.192C240.47 88.5867 240.998 88.784 241.595 88.784C242.075 88.784 242.475 88.6773 242.795 88.464C243.126 88.24 243.371 87.9413 243.531 87.568H245.227C245.014 88.3147 244.587 88.9387 243.947 89.44C243.318 89.9413 242.534 90.192 241.595 90.192ZM241.595 83.264C241.03 83.264 240.529 83.4347 240.091 83.776C239.654 84.1067 239.387 84.608 239.291 85.28H243.771C243.739 84.6613 243.521 84.1707 243.115 83.808C242.71 83.4453 242.203 83.264 241.595 83.264Z" fill="white"/>
<path d="M246.368 223L250.464 211.8H252.768L256.864 223H254.688L253.792 220.408H249.424L248.512 223H246.368ZM249.984 218.808H253.232L251.6 214.152L249.984 218.808ZM261.219 223.192C260.515 223.192 259.896 223.08 259.363 222.856C258.829 222.621 258.403 222.301 258.083 221.896C257.763 221.491 257.571 221.021 257.507 220.488H259.571C259.635 220.797 259.805 221.064 260.083 221.288C260.371 221.501 260.739 221.608 261.187 221.608C261.635 221.608 261.96 221.517 262.163 221.336C262.376 221.155 262.483 220.947 262.483 220.712C262.483 220.371 262.333 220.141 262.035 220.024C261.736 219.896 261.32 219.773 260.787 219.656C260.445 219.581 260.099 219.491 259.747 219.384C259.395 219.277 259.069 219.144 258.771 218.984C258.483 218.813 258.248 218.6 258.067 218.344C257.885 218.077 257.795 217.752 257.795 217.368C257.795 216.664 258.072 216.072 258.627 215.592C259.192 215.112 259.981 214.872 260.995 214.872C261.933 214.872 262.68 215.091 263.235 215.528C263.8 215.965 264.136 216.568 264.243 217.336H262.307C262.189 216.749 261.747 216.456 260.979 216.456C260.595 216.456 260.296 216.531 260.083 216.68C259.88 216.829 259.779 217.016 259.779 217.24C259.779 217.475 259.933 217.661 260.243 217.8C260.552 217.939 260.963 218.067 261.475 218.184C262.029 218.312 262.536 218.456 262.995 218.616C263.464 218.765 263.837 218.995 264.115 219.304C264.392 219.603 264.531 220.035 264.531 220.6C264.541 221.091 264.413 221.533 264.147 221.928C263.88 222.323 263.496 222.632 262.995 222.856C262.493 223.08 261.901 223.192 261.219 223.192ZM269.305 223.192C268.601 223.192 267.982 223.08 267.449 222.856C266.916 222.621 266.489 222.301 266.169 221.896C265.849 221.491 265.657 221.021 265.593 220.488H267.657C267.721 220.797 267.892 221.064 268.169 221.288C268.457 221.501 268.825 221.608 269.273 221.608C269.721 221.608 270.046 221.517 270.249 221.336C270.462 221.155 270.569 220.947 270.569 220.712C270.569 220.371 270.42 220.141 270.121 220.024C269.822 219.896 269.406 219.773 268.873 219.656C268.532 219.581 268.185 219.491 267.833 219.384C267.481 219.277 267.156 219.144 266.857 218.984C266.569 218.813 266.334 218.6 266.153 218.344C265.972 218.077 265.881 217.752 265.881 217.368C265.881 216.664 266.158 216.072 266.713 215.592C267.278 215.112 268.068 214.872 269.081 214.872C270.02 214.872 270.766 215.091 271.321 215.528C271.886 215.965 272.222 216.568 272.329 217.336H270.393C270.276 216.749 269.833 216.456 269.065 216.456C268.681 216.456 268.382 216.531 268.169 216.68C267.966 216.829 267.865 217.016 267.865 217.24C267.865 217.475 268.02 217.661 268.329 217.8C268.638 217.939 269.049 218.067 269.561 218.184C270.116 218.312 270.622 218.456 271.081 218.616C271.55 218.765 271.924 218.995 272.201 219.304C272.478 219.603 272.617 220.035 272.617 220.6C272.628 221.091 272.5 221.533 272.233 221.928C271.966 222.323 271.582 222.632 271.081 222.856C270.58 223.08 269.988 223.192 269.305 223.192ZM277.967 223.192C277.167 223.192 276.458 223.021 275.839 222.68C275.221 222.339 274.735 221.859 274.383 221.24C274.031 220.621 273.855 219.907 273.855 219.096C273.855 218.275 274.026 217.544 274.367 216.904C274.719 216.264 275.199 215.768 275.807 215.416C276.426 215.053 277.151 214.872 277.983 214.872C278.762 214.872 279.45 215.043 280.047 215.384C280.645 215.725 281.109 216.195 281.439 216.792C281.781 217.379 281.951 218.035 281.951 218.76C281.951 218.877 281.946 219 281.935 219.128C281.935 219.256 281.93 219.389 281.919 219.528H275.887C275.93 220.147 276.143 220.632 276.527 220.984C276.922 221.336 277.397 221.512 277.951 221.512C278.367 221.512 278.714 221.421 278.991 221.24C279.279 221.048 279.493 220.803 279.631 220.504H281.711C281.562 221.005 281.311 221.464 280.959 221.88C280.618 222.285 280.191 222.605 279.679 222.84C279.178 223.075 278.607 223.192 277.967 223.192ZM277.983 216.536C277.482 216.536 277.039 216.68 276.655 216.968C276.271 217.245 276.026 217.672 275.919 218.248H279.871C279.839 217.725 279.647 217.309 279.295 217C278.943 216.691 278.506 216.536 277.983 216.536ZM286.749 223C285.917 223 285.25 222.797 284.749 222.392C284.248 221.987 283.997 221.267 283.997 220.232V216.776H282.637V215.064H283.997L284.237 212.936H286.045V215.064H288.189V216.776H286.045V220.248C286.045 220.632 286.125 220.899 286.285 221.048C286.456 221.187 286.744 221.256 287.149 221.256H288.141V223H286.749ZM292.908 223.192C292.204 223.192 291.585 223.08 291.052 222.856C290.518 222.621 290.092 222.301 289.772 221.896C289.452 221.491 289.26 221.021 289.196 220.488H291.26C291.324 220.797 291.494 221.064 291.772 221.288C292.06 221.501 292.428 221.608 292.876 221.608C293.324 221.608 293.649 221.517 293.852 221.336C294.065 221.155 294.172 220.947 294.172 220.712C294.172 220.371 294.022 220.141 293.724 220.024C293.425 219.896 293.009 219.773 292.476 219.656C292.134 219.581 291.788 219.491 291.436 219.384C291.084 219.277 290.758 219.144 290.46 218.984C290.172 218.813 289.937 218.6 289.756 218.344C289.574 218.077 289.484 217.752 289.484 217.368C289.484 216.664 289.761 216.072 290.316 215.592C290.881 215.112 291.67 214.872 292.684 214.872C293.622 214.872 294.369 215.091 294.924 215.528C295.489 215.965 295.825 216.568 295.932 217.336H293.996C293.878 216.749 293.436 216.456 292.668 216.456C292.284 216.456 291.985 216.531 291.772 216.68C291.569 216.829 291.468 217.016 291.468 217.24C291.468 217.475 291.622 217.661 291.932 217.8C292.241 217.939 292.652 218.067 293.164 218.184C293.718 218.312 294.225 218.456 294.684 218.616C295.153 218.765 295.526 218.995 295.804 219.304C296.081 219.603 296.22 220.035 296.22 220.6C296.23 221.091 296.102 221.533 295.836 221.928C295.569 222.323 295.185 222.632 294.684 222.856C294.182 223.08 293.59 223.192 292.908 223.192ZM304.838 223.176C304.017 223.176 303.302 223.037 302.694 222.76C302.086 222.472 301.612 222.072 301.27 221.56C300.94 221.048 300.774 220.451 300.774 219.768C300.774 219.043 300.977 218.387 301.382 217.8C301.788 217.213 302.39 216.744 303.19 216.392C302.87 216.019 302.641 215.667 302.502 215.336C302.364 215.005 302.294 214.653 302.294 214.28C302.294 213.768 302.422 213.315 302.678 212.92C302.934 212.515 303.297 212.195 303.766 211.96C304.246 211.725 304.817 211.608 305.478 211.608C306.15 211.608 306.721 211.731 307.19 211.976C307.66 212.221 308.012 212.552 308.246 212.968C308.492 213.384 308.604 213.848 308.582 214.36H306.63C306.63 213.965 306.513 213.672 306.278 213.48C306.054 213.277 305.782 213.176 305.462 213.176C305.1 213.176 304.806 213.277 304.582 213.48C304.369 213.683 304.262 213.944 304.262 214.264C304.262 214.531 304.348 214.803 304.518 215.08C304.689 215.357 304.94 215.677 305.27 216.04L308.406 219.144C308.63 218.781 308.865 218.36 309.11 217.88L309.462 217.176H311.558L310.998 218.264C310.572 219.128 310.145 219.859 309.718 220.456L312.294 223H309.846L308.598 221.752C308.054 222.253 307.473 222.616 306.854 222.84C306.246 223.064 305.574 223.176 304.838 223.176ZM302.758 219.64C302.758 220.163 302.95 220.605 303.334 220.968C303.729 221.32 304.252 221.496 304.902 221.496C305.83 221.496 306.636 221.165 307.318 220.504L304.358 217.576C303.814 217.811 303.409 218.104 303.142 218.456C302.886 218.808 302.758 219.203 302.758 219.64ZM316.786 223V211.8H321.282C322.445 211.8 323.33 212.072 323.938 212.616C324.557 213.149 324.866 213.837 324.866 214.68C324.866 215.384 324.674 215.949 324.29 216.376C323.917 216.792 323.458 217.075 322.914 217.224C323.554 217.352 324.082 217.672 324.498 218.184C324.914 218.685 325.122 219.272 325.122 219.944C325.122 220.829 324.802 221.56 324.162 222.136C323.522 222.712 322.615 223 321.442 223H316.786ZM318.834 216.504H320.978C321.554 216.504 321.997 216.371 322.306 216.104C322.615 215.837 322.77 215.459 322.77 214.968C322.77 214.499 322.615 214.131 322.306 213.864C322.007 213.587 321.554 213.448 320.946 213.448H318.834V216.504ZM318.834 221.336H321.122C321.73 221.336 322.199 221.197 322.53 220.92C322.871 220.632 323.042 220.232 323.042 219.72C323.042 219.197 322.866 218.787 322.514 218.488C322.162 218.189 321.687 218.04 321.09 218.04H318.834V221.336ZM326.512 223V215.064H328.336L328.528 216.552C328.816 216.04 329.205 215.635 329.696 215.336C330.197 215.027 330.784 214.872 331.456 214.872V217.032H330.88C330.432 217.032 330.032 217.101 329.68 217.24C329.328 217.379 329.051 217.619 328.848 217.96C328.656 218.301 328.56 218.776 328.56 219.384V223H326.512ZM335.272 223.192C334.589 223.192 334.029 223.085 333.592 222.872C333.154 222.648 332.829 222.355 332.616 221.992C332.402 221.629 332.296 221.229 332.296 220.792C332.296 220.056 332.584 219.459 333.16 219C333.736 218.541 334.6 218.312 335.752 218.312H337.768V218.12C337.768 217.576 337.613 217.176 337.304 216.92C336.994 216.664 336.61 216.536 336.152 216.536C335.736 216.536 335.373 216.637 335.064 216.84C334.754 217.032 334.562 217.32 334.488 217.704H332.488C332.541 217.128 332.733 216.627 333.064 216.2C333.405 215.773 333.842 215.448 334.376 215.224C334.909 214.989 335.506 214.872 336.168 214.872C337.298 214.872 338.189 215.155 338.84 215.72C339.49 216.285 339.816 217.085 339.816 218.12V223H338.072L337.88 221.72C337.645 222.147 337.314 222.499 336.888 222.776C336.472 223.053 335.933 223.192 335.272 223.192ZM335.736 221.592C336.322 221.592 336.776 221.4 337.096 221.016C337.426 220.632 337.634 220.157 337.72 219.592H335.976C335.432 219.592 335.042 219.693 334.808 219.896C334.573 220.088 334.456 220.328 334.456 220.616C334.456 220.925 334.573 221.165 334.808 221.336C335.042 221.507 335.352 221.592 335.736 221.592ZM341.45 223V215.064H343.258L343.418 216.408C343.663 215.939 344.015 215.565 344.474 215.288C344.943 215.011 345.493 214.872 346.122 214.872C347.103 214.872 347.866 215.181 348.41 215.8C348.954 216.419 349.226 217.325 349.226 218.52V223H347.178V218.712C347.178 218.029 347.039 217.507 346.762 217.144C346.485 216.781 346.053 216.6 345.466 216.6C344.89 216.6 344.415 216.803 344.042 217.208C343.679 217.613 343.498 218.179 343.498 218.904V223H341.45ZM354.512 223.192C353.766 223.192 353.099 223.011 352.512 222.648C351.926 222.285 351.462 221.789 351.12 221.16C350.779 220.531 350.608 219.816 350.608 219.016C350.608 218.216 350.779 217.507 351.12 216.888C351.462 216.259 351.926 215.768 352.512 215.416C353.099 215.053 353.766 214.872 354.512 214.872C355.11 214.872 355.632 214.984 356.08 215.208C356.528 215.432 356.891 215.747 357.168 216.152V211.48H359.216V223H357.392L357.168 221.864C356.912 222.216 356.571 222.525 356.144 222.792C355.728 223.059 355.184 223.192 354.512 223.192ZM354.944 221.4C355.606 221.4 356.144 221.181 356.56 220.744C356.987 220.296 357.2 219.725 357.2 219.032C357.2 218.339 356.987 217.773 356.56 217.336C356.144 216.888 355.606 216.664 354.944 216.664C354.294 216.664 353.755 216.883 353.328 217.32C352.902 217.757 352.688 218.323 352.688 219.016C352.688 219.709 352.902 220.28 353.328 220.728C353.755 221.176 354.294 221.4 354.944 221.4ZM362.086 213.832C361.713 213.832 361.403 213.72 361.158 213.496C360.923 213.272 360.806 212.989 360.806 212.648C360.806 212.307 360.923 212.029 361.158 211.816C361.403 211.592 361.713 211.48 362.086 211.48C362.459 211.48 362.763 211.592 362.998 211.816C363.243 212.029 363.366 212.307 363.366 212.648C363.366 212.989 363.243 213.272 362.998 213.496C362.763 213.72 362.459 213.832 362.086 213.832ZM361.062 223V215.064H363.11V223H361.062ZM364.927 223V215.064H366.735L366.895 216.408C367.141 215.939 367.493 215.565 367.951 215.288C368.421 215.011 368.97 214.872 369.599 214.872C370.581 214.872 371.343 215.181 371.887 215.8C372.431 216.419 372.703 217.325 372.703 218.52V223H370.655V218.712C370.655 218.029 370.517 217.507 370.239 217.144C369.962 216.781 369.53 216.6 368.943 216.6C368.367 216.6 367.893 216.803 367.519 217.208C367.157 217.613 366.975 218.179 366.975 218.904V223H364.927ZM377.702 220.632C377.318 220.632 376.961 220.589 376.63 220.504L376.038 221.096C376.219 221.192 376.465 221.272 376.774 221.336C377.083 221.4 377.585 221.464 378.278 221.528C379.334 221.624 380.102 221.875 380.582 222.28C381.062 222.685 381.302 223.245 381.302 223.96C381.302 224.429 381.174 224.872 380.918 225.288C380.662 225.715 380.267 226.056 379.734 226.312C379.201 226.579 378.518 226.712 377.686 226.712C376.555 226.712 375.643 226.499 374.95 226.072C374.257 225.656 373.91 225.027 373.91 224.184C373.91 223.469 374.257 222.851 374.95 222.328C374.737 222.232 374.55 222.131 374.39 222.024C374.241 221.917 374.107 221.805 373.99 221.688V221.32L375.382 219.848C374.763 219.304 374.454 218.605 374.454 217.752C374.454 217.219 374.582 216.733 374.838 216.296C375.105 215.859 375.478 215.512 375.958 215.256C376.438 215 377.019 214.872 377.702 214.872C378.15 214.872 378.566 214.936 378.95 215.064H381.958V216.312L380.598 216.408C380.811 216.813 380.918 217.261 380.918 217.752C380.918 218.285 380.79 218.771 380.534 219.208C380.278 219.645 379.905 219.992 379.414 220.248C378.934 220.504 378.363 220.632 377.702 220.632ZM377.702 219.064C378.118 219.064 378.459 218.952 378.726 218.728C379.003 218.504 379.142 218.184 379.142 217.768C379.142 217.352 379.003 217.032 378.726 216.808C378.459 216.584 378.118 216.472 377.702 216.472C377.265 216.472 376.913 216.584 376.646 216.808C376.379 217.032 376.246 217.352 376.246 217.768C376.246 218.184 376.379 218.504 376.646 218.728C376.913 218.952 377.265 219.064 377.702 219.064ZM375.782 223.976C375.782 224.371 375.963 224.664 376.326 224.856C376.699 225.059 377.153 225.16 377.686 225.16C378.198 225.16 378.614 225.053 378.934 224.84C379.254 224.637 379.414 224.36 379.414 224.008C379.414 223.72 379.307 223.48 379.094 223.288C378.891 223.096 378.481 222.979 377.862 222.936C377.425 222.904 377.019 222.856 376.646 222.792C376.337 222.963 376.113 223.149 375.974 223.352C375.846 223.555 375.782 223.763 375.782 223.976Z" fill="black"/>
</svg>
