<svg width="52" height="40" viewBox="0 0 52 40" fill="none" xmlns="http://www.w3.org/2000/svg">
<path d="M11.6476 25.3691L10.4282 11.4316L5.18072 11.8907C2.99915 12.0816 1.3852 14.0049 1.57607 16.1866L2.10411 22.2221C2.29498 24.4037 4.21853 26.0191 6.4001 25.8283L11.6476 25.3692L11.6476 25.3691Z" fill="#757575"/>
<path d="M30.3105 3.28259L21.4708 9.05395C19.8308 10.1238 17.9525 10.7734 16.003 10.9439L12.8422 11.2205L14.0615 25.1579L17.2223 24.8814C19.1719 24.7108 21.1344 25.0229 22.9353 25.7932L32.6429 29.9419L32.7489 31.1531L35.164 30.9418L32.6196 1.86017L30.2046 2.07146L30.3105 3.28259ZM32.4335 27.2444L23.8776 23.5875C21.7221 22.6659 19.348 22.2869 17.0132 22.4912L16.2412 22.5587L15.44 13.4003L16.212 13.3328C18.5468 13.1285 20.819 12.343 22.7817 11.0611L30.5727 5.97552L32.4335 27.2444Z" fill="#757575"/>
<path d="M36.4355 13.3684L34.4844 13.5391L34.9722 19.1149L36.9233 18.9442L36.4355 13.3684Z" fill="#757575"/>
<path d="M4.60703 36.0914L4.74249 37.6397C4.82803 38.6175 5.68958 39.3391 6.66731 39.2535L9.61798 38.9954C10.5942 38.91 11.3175 38.0497 11.2319 37.072L11.147 36.1015L13.4432 27.472L6.37735 28.0902L4.60703 36.0914Z" fill="#757575"/>
<path d="M49.5923 14.2814L41.2891 15.0078L41.4197 16.5006L49.7229 15.7742L49.5923 14.2814Z" fill="#757575"/>
<path d="M46.5993 6.63718L45.7266 5.41797L39.5201 9.86073L40.3929 11.0799L46.5993 6.63718Z" fill="#757575"/>
<path d="M40.5422 21.5161L47.4256 24.8136L48.0735 23.4629L41.19 20.1639L40.5422 21.5161Z" fill="#757575"/>
</svg>
