<svg width="46" height="46" viewBox="0 0 46 46" fill="none" xmlns="http://www.w3.org/2000/svg">
<path d="M12.457 24.916L13.9606 27.9231C14.4694 28.9408 14.7239 29.4497 15.0638 29.8905C15.3654 30.2819 15.7161 30.6327 16.1074 30.9343C16.5484 31.2742 17.0572 31.5287 18.0749 32.0374L21.082 33.541L18.0749 35.0446C17.0572 35.5533 16.5484 35.8079 16.1074 36.1477C15.7161 36.4494 15.3654 36.8001 15.0638 37.1915C14.7239 37.6323 14.4694 38.1412 13.9606 39.159L12.457 42.166L10.9535 39.159C10.4446 38.1412 10.1902 37.6323 9.85031 37.1915C9.5487 36.8001 9.19791 36.4494 8.80664 36.1477C8.36568 35.8079 7.85684 35.5533 6.83913 35.0446L3.83203 33.541L6.83913 32.0374C7.85684 31.5287 8.36568 31.2742 8.80664 30.9343C9.19791 30.6327 9.5487 30.2819 9.85031 29.8905C10.1902 29.4497 10.4446 28.9408 10.9535 27.9231L12.457 24.916Z" stroke="#757575" stroke-width="3.83333" stroke-linecap="round" stroke-linejoin="round"/>
<path d="M28.7487 3.83398L31.0077 9.70746C31.5482 11.1128 31.8184 11.8155 32.2388 12.4065C32.6114 12.9304 33.0689 13.3881 33.5929 13.7606C34.1838 14.1808 34.8866 14.4511 36.2919 14.9916L42.1654 17.2507L36.2919 19.5096C34.8866 20.0501 34.1838 20.3204 33.5929 20.7407C33.0689 21.1133 32.6114 21.5708 32.2388 22.0948C31.8184 22.6857 31.5482 23.3886 31.0077 24.7939L28.7487 30.6673L26.4897 24.7939C25.9492 23.3886 25.679 22.6857 25.2586 22.0948C24.886 21.5708 24.4285 21.1133 23.9045 20.7407C23.3136 20.3204 22.6108 20.0501 21.2055 19.5096L15.332 17.2507L21.2055 14.9916C22.6108 14.4511 23.3136 14.1808 23.9045 13.7606C24.4285 13.3881 24.886 12.9304 25.2586 12.4065C25.679 11.8155 25.9492 11.1128 26.4897 9.70746L28.7487 3.83398Z" stroke="#757575" stroke-width="3.83333" stroke-linecap="round" stroke-linejoin="round"/>
</svg>
