<svg width="86" height="89" viewBox="0 0 86 89" fill="none" xmlns="http://www.w3.org/2000/svg">
<path d="M39.8992 84.7607V88.0177H46.4133V84.7607H39.8992ZM46.4133 3.55469C46.4133 1.75589 44.955 0.297673 43.1563 0.297673C41.3575 0.297673 39.8992 1.75589 39.8992 3.55469L46.4133 3.55469ZM74.9454 34.8571C76.2393 33.6076 76.2754 31.5457 75.0259 30.2517C73.7764 28.9577 71.7145 28.9217 70.4205 30.1712L74.9454 34.8571ZM84.1007 42.2416C85.5982 41.245 86.0043 39.2232 85.0077 37.7257C84.0112 36.2282 81.9893 35.8221 80.4918 36.8187L84.1007 42.2416ZM63.047 36.4382C63.2356 34.6493 61.9382 33.0463 60.1493 32.8577C58.3605 32.6691 56.7574 33.9665 56.5688 35.7554L63.047 36.4382ZM52.5121 51.9916L50.2496 49.6486L52.5121 51.9916ZM70.2844 55.0831C71.9918 55.6493 73.8349 54.7242 74.401 53.0168C74.9672 51.3094 74.0421 49.4663 72.3348 48.9001L70.2844 55.0831ZM43.1562 41.1722H39.8992H43.1562ZM61.1421 15.5962C61.4032 13.8165 60.172 12.1621 58.3923 11.901C56.6125 11.64 54.9581 12.8711 54.697 14.6509L61.1421 15.5962ZM72.7005 22.6215C74.327 21.8533 75.0228 19.912 74.2546 18.2855C73.4864 16.659 71.5451 15.9632 69.9186 16.7314L72.7005 22.6215ZM46.4133 84.7607V61.0258H39.8992V84.7607H46.4133ZM64.1304 45.3004L74.9454 34.8571L70.4205 30.1712L59.6055 40.6144L64.1304 45.3004ZM63.4645 45.7963C65.6286 44.5792 68.516 44.5008 72.4361 44.5008C74.2401 44.5008 76.2769 44.5056 78.2005 44.2604C80.1429 44.0128 82.2342 43.4837 84.1007 42.2416L80.4918 36.8187C79.7833 37.2902 78.7953 37.6179 77.3768 37.7987C75.9395 37.9819 74.3337 37.9867 72.4361 37.9867C68.9531 37.9867 64.2014 37.9083 60.2714 40.1185L63.4645 45.7963ZM63.5813 40.1875C63.3406 40.0386 63.0697 39.8845 62.9492 39.8139C62.7898 39.7207 62.7378 39.6854 62.7196 39.672C62.7138 39.6678 62.7653 39.7049 62.832 39.7823C62.9024 39.8641 62.9502 39.9447 62.9763 40.0013C63.0166 40.0886 62.9318 39.9612 62.9014 39.3473C62.8714 38.7409 62.9008 37.8246 63.047 36.4382L56.5688 35.7554C56.2629 38.6579 56.2485 40.9657 57.06 42.7272C57.9842 44.733 59.9472 45.5991 60.1545 45.7273L63.5813 40.1875ZM45.4187 63.3688L54.7745 54.3346L50.2496 49.6486L40.8938 58.6828L45.4187 63.3688ZM54.7745 54.3346L64.1304 45.3004L59.6055 40.6144L50.2496 49.6486L54.7745 54.3346ZM54.361 54.673C54.6557 54.4698 55.5269 54.1448 57.2167 53.9821C58.7877 53.8308 60.6546 53.8542 62.5479 53.9852C64.4265 54.1151 66.2477 54.345 67.6971 54.576C68.4209 54.6914 69.038 54.8049 69.5112 54.9028C69.748 54.9518 69.9388 54.9948 70.0826 55.0301C70.2391 55.0684 70.2958 55.0869 70.2844 55.0831L72.3348 48.9001C71.622 48.6638 70.2416 48.3854 68.7226 48.1432C67.1146 47.8869 65.0991 47.6321 62.9975 47.4867C60.9105 47.3423 58.6534 47.2996 56.5924 47.498C54.6502 47.685 52.3812 48.1256 50.6632 49.3102L54.361 54.673ZM46.4133 61.0258V41.1722H39.8992V61.0258H46.4133ZM46.4133 41.1722V3.55469L39.8992 3.55469V41.1722H46.4133ZM45.5429 43.3885L60.3062 27.4906L55.5329 23.058L40.7696 38.9558L45.5429 43.3885ZM61.1505 24.8631C60.7562 21.765 60.6458 18.9801 61.1421 15.5962L54.697 14.6509C54.0919 18.7767 54.2425 22.1805 54.6886 25.6855L61.1505 24.8631ZM58.6555 28.4471C63.0989 27.4164 67.5723 25.0436 72.7005 22.6215L69.9186 16.7314C64.2959 19.387 60.7429 21.2759 57.1836 22.1015L58.6555 28.4471Z" fill="#737373"/>
<path d="M46.4133 81.5656V84.8226H39.8992V81.5656H46.4133ZM39.8992 3.55469C39.8992 1.75589 41.3575 0.297673 43.1562 0.297673C44.955 0.297673 46.4133 1.75589 46.4133 3.55469L39.8992 3.55469ZM11.3672 34.8571C10.0732 33.6076 10.0371 31.5457 11.2866 30.2517C12.5361 28.9578 14.598 28.9217 15.892 30.1712L11.3672 34.8571ZM2.2118 42.2416C0.714291 41.245 0.308205 39.2232 1.30478 37.7257C2.30135 36.2282 4.3232 35.8221 5.82071 36.8187L2.2118 42.2416ZM23.2655 36.4382C23.0769 34.6493 24.3743 33.0463 26.1632 32.8577C27.952 32.6692 29.5551 33.9665 29.7437 35.7554L23.2655 36.4382ZM33.8004 51.9916L36.0629 49.6486L33.8004 51.9916ZM16.0281 55.0831C14.3207 55.6493 12.4776 54.7242 11.9115 53.0168C11.3453 51.3094 12.2704 49.4663 13.9777 48.9001L16.0281 55.0831ZM43.1562 41.1722H46.4133H43.1562ZM25.1704 15.5962C24.9093 13.8165 26.1405 12.1621 27.9202 11.901C29.7 11.64 31.3544 12.8711 31.6155 14.6509L25.1704 15.5962ZM13.612 22.6215C11.9855 21.8533 11.2897 19.912 12.0579 18.2855C12.8261 16.659 14.7674 15.9632 16.3939 16.7314L13.612 22.6215ZM39.8992 81.5656V61.0258H46.4133V81.5656H39.8992ZM22.1821 45.3004L11.3672 34.8571L15.892 30.1712L26.707 40.6144L22.1821 45.3004ZM22.848 45.7963C20.6839 44.5792 17.7965 44.5008 13.8764 44.5008C12.0724 44.5008 10.0356 44.5056 8.11201 44.2604C6.16956 44.0128 4.07829 43.4837 2.2118 42.2416L5.82071 36.8187C6.52921 37.2902 7.51722 37.6179 8.93567 37.7987C10.373 37.9819 11.9788 37.9867 13.8764 37.9867C17.3594 37.9867 22.1111 37.9083 26.0411 40.1185L22.848 45.7963ZM22.7312 40.1875C22.9719 40.0386 23.2428 39.8845 23.3633 39.814C23.5227 39.7207 23.5747 39.6854 23.5929 39.672C23.5987 39.6678 23.5472 39.7049 23.4805 39.7823C23.4101 39.8641 23.3623 39.9447 23.3362 40.0013C23.2959 40.0886 23.3807 39.9612 23.4111 39.3473C23.4411 38.741 23.4117 37.8246 23.2655 36.4382L29.7437 35.7554C30.0496 38.6579 30.064 40.9657 29.2525 42.7272C28.3283 44.733 26.3653 45.5991 26.158 45.7273L22.7312 40.1875ZM40.8938 63.3688L31.538 54.3346L36.0629 49.6486L45.4187 58.6829L40.8938 63.3688ZM31.538 54.3346L22.1821 45.3004L26.707 40.6144L36.0629 49.6486L31.538 54.3346ZM31.9515 54.673C31.6568 54.4698 30.7856 54.1448 29.0958 53.9821C27.5248 53.8308 25.6579 53.8542 23.7646 53.9852C21.886 54.1151 20.0648 54.345 18.6154 54.576C17.8916 54.6914 17.2745 54.8049 16.8013 54.9028C16.5645 54.9518 16.3737 54.9948 16.2299 55.0301C16.0734 55.0684 16.0167 55.0869 16.0281 55.0831L13.9777 48.9001C14.6905 48.6638 16.0709 48.3854 17.5899 48.1432C19.1979 47.8869 21.2134 47.6321 23.315 47.4867C25.402 47.3423 27.6591 47.2996 29.7201 47.498C31.6623 47.6851 33.9313 48.1256 35.6493 49.3102L31.9515 54.673ZM39.8992 61.0258V41.1722H46.4133V61.0258H39.8992ZM39.8992 41.1722V3.55469L46.4133 3.55469V41.1722H39.8992ZM40.7696 43.3885L26.0063 27.4906L30.7796 23.058L45.5429 38.9558L40.7696 43.3885ZM25.162 24.8631C25.5563 21.765 25.6667 18.9802 25.1704 15.5962L31.6155 14.6509C32.2206 18.7767 32.07 22.1805 31.6239 25.6855L25.162 24.8631ZM27.657 28.4471C23.2136 27.4164 18.7402 25.0436 13.612 22.6215L16.3939 16.7314C22.0166 19.387 25.5696 21.2759 29.1289 22.1015L27.657 28.4471Z" fill="#737373"/>
</svg>
